
<svg xmlns="http://www.w3.org/2000/svg" xml:space="preserve" width="150px" height="86px" version="1.1">
  <metadata id="CorelCorpID_1Corel-Layer"/>
  <g id="Backup_of_logo_x0020_p_x0020_premoaço.cdr">
   <path fill="#737476" d="M26.87 37.39l114.44 -0.14c0,0 -5.02,11.82 -10.96,24.54 -2.49,5.33 -11.88,4.87 -15.1,4.87 -5.37,0 -62.37,0.03 -62.37,0.03l-9.17 16.67 -42.19 -0.03 25.35 -45.94 0 0z"/>
   <path fill="#373435" d="M27.17 20.39l31.87 -0.04 -1.45 2.6 37.33 0c1.12,-0.27 2.07,-1.3 2.95,-2.64l43.76 -0.06c0,0 -5.02,11.83 -10.97,24.54 -2.49,5.33 -11.88,4.87 -15.1,4.87 -5.37,0 -62.37,0.03 -62.37,0.03l-9.17 16.68 -42.18 -0.04 25.33 -45.94 0 0z"/>
   <path fill="#CF3034" d="M27.7 2.47l114.44 -0.14c0,0 -5.01,11.83 -10.95,24.54 -2.5,5.33 -11.88,4.87 -15.11,4.87 -5.36,0 -62.36,0.03 -62.36,0.03l-9.18 16.67 -42.19 -0.03 25.35 -45.94 0 0zm34.13 12.9l-4.24 7.58 37.33 0c2.43,-0.58 4,-4.76 5.89,-7.69l-38.98 0.11z"/>
  </g>
 
</svg>
