<?xml version="1.0" encoding="UTF-8"?>
<!DOCTYPE svg PUBLIC "-//W3C//DTD SVG 1.1//EN" "http://www.w3.org/Graphics/SVG/1.1/DTD/svg11.dtd">
<!-- Creator: CorelDRAW 2021 (64-Bit) -->
<svg xmlns="http://www.w3.org/2000/svg" xml:space="preserve" width="400px" height="300px" version="1.1" style="shape-rendering:geometricPrecision; text-rendering:geometricPrecision; image-rendering:optimizeQuality; fill-rule:evenodd; clip-rule:evenodd"
viewBox="0 0 400 300"
 xmlns:xlink="http://www.w3.org/1999/xlink"
 xmlns:xodm="http://www.corel.com/coreldraw/odm/2003">
 <defs>
  <style type="text/css">
   <![CDATA[
    .fil0 {fill:#1D3557}
   ]]>
  </style>
 </defs>
 <g id="Layer_x0020_1">
  <metadata id="CorelCorpID_0Corel-Layer"/>
  <g id="_2044250869296">
   <path class="fil0" d="M209.157 66.462c1.926,-2.366 4.139,-2.394 4.324,-7.092 -1.905,-4.531 -5.426,-5.502 -9.141,-2.273 -3.17,2.757 -5.465,3.589 -8.27,6.598l-31.576 -5.347c0.655,-2.561 4.396,-2.807 5.159,-6.243 0.894,-4.032 -2.062,-5.998 -5.909,-6.222 -4.071,1.631 -8.624,7.752 -12.802,10.091 -7.82,1.715 -56.375,-17.867 -75.404,2.269 2.253,1.727 29.297,12.631 34.227,14.68 11.602,4.821 23.103,9.728 34.614,14.412 7.414,3.018 66.813,27.404 68.713,28.968l-15.227 13.455c-5.966,5.073 -10.537,9.077 -16.068,13.47 -10.966,8.709 -21.181,18.165 -32.036,27.077 -27.885,22.89 -28.647,20.631 -66.971,14.521 -5.038,-0.803 -7.972,-2.236 -13.265,-1.198 -3.474,0.681 -7.864,2.758 -9.525,5.068 2.026,2.863 45.583,33.074 48.506,36.318 1.763,1.957 22.905,43.2 26.676,50.577 1.486,2.908 1.139,2.469 2.59,3.355 7.147,-8.264 6.66,-9.172 6.82,-22.434 0.112,-9.218 -0.036,-18.667 0.231,-27.723 0.32,-10.876 9.222,-22.954 15.907,-28.532 2.974,-2.481 5.356,-4.455 8.17,-6.929l47.439 -40.638c2.797,-2.356 5.04,-4.321 7.772,-6.711 2.114,-1.849 6.098,-5.646 8.552,-6.913l35.517 144.934c5.547,-2.244 11.257,-14.373 13.118,-21.929 2.484,-10.087 1.402,-21.96 1.228,-32.195 -0.365,-21.642 -2.091,-18.644 6.045,-25.825 1.979,-1.748 8.424,-5.519 4.937,-10.055 -4.252,-5.528 -8.651,1.16 -11.492,1.976l-0.142 -26.268c-0.083,-4.208 -0.62,-4.66 1.942,-6.841 1.834,-1.561 8.804,-6.447 9.095,-9.425 0.249,-2.557 -1.882,-4.952 -4.18,-5.381 -3.401,-0.637 -4.31,1.477 -6.496,2.976 -1,-2.546 -0.868,-23.238 -0.904,-25.8 -0.104,-7.409 -1.025,-19.819 -0.108,-26.561l41.611 -35.675c5.544,-6.086 12.877,-13.15 15.313,-23.924 1.82,-8.048 0.468,-11.365 -7.813,-11.557 -13.981,-0.325 -28.298,12.182 -37.303,19.921l-31.131 26.801c-2.859,2.035 -13.113,-0.834 -17.311,-1.572 -10.713,-1.888 -25.51,-3.463 -35.432,-6.204z"/>
  </g>
 </g>
</svg>
