<?xml version="1.0" encoding="UTF-8"?>
<!DOCTYPE svg PUBLIC "-//W3C//DTD SVG 1.1//EN" "http://www.w3.org/Graphics/SVG/1.1/DTD/svg11.dtd">
<!-- Creator: CorelDRAW 2021 (64-Bit) -->
<svg xmlns="http://www.w3.org/2000/svg" xml:space="preserve" width="400px" height="300px" version="1.1" style="shape-rendering:geometricPrecision; text-rendering:geometricPrecision; image-rendering:optimizeQuality; fill-rule:evenodd; clip-rule:evenodd"
viewBox="0 0 400 300"
 xmlns:xlink="http://www.w3.org/1999/xlink"
 xmlns:xodm="http://www.corel.com/coreldraw/odm/2003">
 <defs>
  <style type="text/css">
   <![CDATA[
    .fil0 {fill:#E94D59}
   ]]>
  </style>
 </defs>
 <g id="Layer_x0020_1">
  <metadata id="CorelCorpID_0Corel-Layer"/>
  <path class="fil0" d="M370 235l-109.695 -40.214 -233.305 0 0 -120.141 261.951 0 0 97.057 81.049 63.298zm-322.583 -80.724l0 -40.154 8.201 0 0 33.311 20.303 0 0 6.843 -28.504 0zm32.622 -20.002c0,-4.129 0.623,-7.597 1.857,-10.406 0.914,-2.064 2.177,-3.921 3.771,-5.561 1.593,-1.64 3.336,-2.856 5.231,-3.657 2.526,-1.065 5.438,-1.602 8.737,-1.602 5.976,0 10.746,1.856 14.336,5.561 3.582,3.713 5.373,8.869 5.373,15.476 0,6.551 -1.781,11.679 -5.334,15.374 -3.555,3.705 -8.314,5.552 -14.262,5.552 -6.023,0 -10.821,-1.838 -14.374,-5.524 -3.553,-3.675 -5.335,-8.747 -5.335,-15.213zm8.427 -0.273c0,4.59 1.065,8.068 3.186,10.444 2.12,2.365 4.816,3.553 8.078,3.553 3.27,0 5.948,-1.178 8.049,-3.525 2.092,-2.357 3.139,-5.882 3.139,-10.585 0,-4.647 -1.019,-8.116 -3.064,-10.397 -2.035,-2.291 -4.741,-3.43 -8.124,-3.43 -3.375,0 -6.1,1.159 -8.163,3.467 -2.064,2.319 -3.101,5.807 -3.101,10.473zm56.092 5.4l0 -6.843 17.588 0 0 16.156c-1.706,1.668 -4.185,3.129 -7.437,4.402 -3.242,1.263 -6.531,1.895 -9.869,1.895 -4.231,0 -7.917,-0.886 -11.065,-2.668 -3.138,-1.782 -5.504,-4.336 -7.088,-7.644 -1.584,-3.309 -2.376,-6.919 -2.376,-10.811 0,-4.223 0.887,-7.974 2.649,-11.264 1.772,-3.28 4.355,-5.807 7.757,-7.559 2.602,-1.348 5.826,-2.017 9.69,-2.017 5.024,0 8.954,1.055 11.783,3.167 2.817,2.121 4.636,5.033 5.447,8.765l-8.144 1.527c-0.565,-1.988 -1.64,-3.562 -3.214,-4.722 -1.564,-1.15 -3.525,-1.724 -5.881,-1.724 -3.563,0 -6.4,1.13 -8.503,3.402 -2.101,2.271 -3.156,5.637 -3.156,10.094 0,4.818 1.065,8.428 3.195,10.831 2.139,2.404 4.929,3.61 8.388,3.61 1.706,0 3.421,-0.339 5.138,-1.008 1.724,-0.67 3.195,-1.489 4.429,-2.451l0 -5.138 -9.331 0zm23.008 1.754l7.974 -0.792c0.481,2.667 1.442,4.619 2.903,5.873 1.461,1.253 3.431,1.875 5.91,1.875 2.621,0 4.599,-0.556 5.929,-1.669 1.329,-1.111 1.999,-2.412 1.999,-3.901 0,-0.962 -0.283,-1.773 -0.839,-2.451 -0.556,-0.669 -1.538,-1.254 -2.932,-1.744 -0.952,-0.339 -3.12,-0.923 -6.513,-1.772 -4.364,-1.093 -7.428,-2.432 -9.19,-4.025 -2.479,-2.234 -3.714,-4.958 -3.714,-8.172 0,-2.064 0.584,-4.005 1.743,-5.806 1.169,-1.8 2.847,-3.167 5.044,-4.11 2.195,-0.943 4.835,-1.413 7.945,-1.413 5.062,0 8.88,1.121 11.434,3.374 2.564,2.253 3.902,5.25 4.033,9.01l-8.2 0.284c-0.348,-2.093 -1.093,-3.592 -2.233,-4.505 -1.141,-0.915 -2.856,-1.377 -5.137,-1.377 -2.357,0 -4.204,0.49 -5.534,1.47 -0.857,0.632 -1.291,1.471 -1.291,2.526 0,0.962 0.406,1.782 1.217,2.46 1.026,0.877 3.525,1.782 7.493,2.725 3.968,0.933 6.9,1.913 8.794,2.912 1.903,1.009 3.393,2.375 4.467,4.119 1.076,1.744 1.613,3.893 1.613,6.447 0,2.319 -0.641,4.497 -1.933,6.523 -1.292,2.027 -3.111,3.535 -5.467,4.515 -2.356,0.989 -5.297,1.48 -8.813,1.48 -5.118,0 -9.049,-1.178 -11.791,-3.544 -2.743,-2.356 -4.373,-5.797 -4.911,-10.312zm39.871 -27.372l8.2 0 0 21.943c0,3.488 0.104,5.74 0.302,6.767 0.349,1.659 1.169,2.998 2.469,3.997 1.31,1.008 3.092,1.508 5.354,1.508 2.291,0 4.025,-0.471 5.194,-1.423 1.168,-0.952 1.865,-2.111 2.102,-3.497 0.235,-1.386 0.357,-3.677 0.357,-6.881l0 -22.414 8.201 0 0 21.293c0,4.863 -0.217,8.304 -0.66,10.312 -0.443,2.006 -1.254,3.703 -2.441,5.088 -1.178,1.386 -2.762,2.48 -4.742,3.3 -1.988,0.82 -4.571,1.235 -7.767,1.235 -3.854,0 -6.776,-0.443 -8.765,-1.339 -1.989,-0.895 -3.563,-2.055 -4.722,-3.487 -1.159,-1.433 -1.913,-2.922 -2.282,-4.497 -0.537,-2.317 -0.8,-5.749 -0.8,-10.282l0 -21.623zm41.067 40.493l0 -40.154 8.2 0 0 33.311 20.304 0 0 6.843 -28.504 0z"/>
 </g>
</svg>
