
<svg xmlns="http://www.w3.org/2000/svg" xml:space="preserve" width="455px" height="86px" version="1.1">
 <g id="Layer_x0020_2">
  <metadata id="CorelCorpID_0Corel-Layer"/>
  <g id="_1994858825872">
   <path fill="#CF3034" fill-rule="nonzero" d="M150.43 2.84l20.48 0c4.46,0 7.8,1.24 10.03,3.74 2.22,2.5 3.33,6.05 3.33,10.67 0,4.73 -1.22,8.44 -3.64,11.1 -2.42,2.68 -6.12,4.01 -11.09,4.01l-6.76 0 0 17.34 -12.35 0 0 -46.86zm12.35 20.03l3.04 0c2.39,0 4.07,-0.5 5.04,-1.47 0.96,-0.97 1.44,-2.21 1.44,-3.73 0,-1.47 -0.41,-2.71 -1.26,-3.74 -0.83,-1.02 -2.41,-1.54 -4.73,-1.54l-3.53 0 0 10.48zm27.29 -7.14l10.37 0 0 5.54c1,-2.41 2.03,-4.07 3.09,-4.97 1.07,-0.91 2.37,-1.35 3.93,-1.35 1.65,0 3.44,0.6 5.38,1.8l-3.44 9.24c-1.31,-0.65 -2.34,-0.96 -3.11,-0.96 -1.44,0 -2.57,0.71 -3.37,2.11 -1.14,1.99 -1.72,5.71 -1.72,11.15l0 11.41 -11.13 0 0 -33.97zm57.55 20.23l-22.2 0c0.2,2.08 0.67,3.64 1.44,4.67 1.07,1.47 2.47,2.2 4.2,2.2 1.09,0 2.13,-0.32 3.1,-0.95 0.61,-0.4 1.26,-1.11 1.94,-2.13l10.91 1.18c-1.67,3.4 -3.68,5.86 -6.04,7.33 -2.35,1.48 -5.74,2.23 -10.15,2.23 -3.83,0 -6.83,-0.64 -9.03,-1.91 -2.19,-1.27 -4.01,-3.29 -5.46,-6.05 -1.43,-2.77 -2.16,-6.02 -2.16,-9.75 0,-5.31 1.45,-9.62 4.34,-12.9 2.89,-3.29 6.89,-4.93 11.98,-4.93 4.14,0 7.39,0.74 9.79,2.21 2.39,1.47 4.22,3.6 5.47,6.4 1.25,2.8 1.87,6.44 1.87,10.92l0 1.48zm-11.24 -6.22c-0.21,-2.53 -0.8,-4.34 -1.73,-5.43 -0.94,-1.1 -2.17,-1.64 -3.7,-1.64 -1.76,0 -3.17,0.83 -4.23,2.48 -0.66,1.02 -1.09,2.55 -1.28,4.59l10.94 0zm16.42 -14.01l10.32 0 0 4.94c1.48,-2.07 2.99,-3.54 4.5,-4.42 1.51,-0.87 3.34,-1.3 5.48,-1.3 2.3,0 4.12,0.48 5.47,1.44 1.34,0.96 2.44,2.38 3.29,4.28 1.73,-2.21 3.31,-3.73 4.74,-4.52 1.43,-0.8 3.19,-1.2 5.29,-1.2 3.09,0 5.5,1.08 7.23,3.25 1.74,2.16 2.61,5.55 2.61,10.15l0 21.35 -11.08 0 0 -19.41c0,-1.54 -0.25,-2.69 -0.76,-3.43 -0.73,-1.18 -1.66,-1.77 -2.75,-1.77 -1.3,0 -2.35,0.56 -3.15,1.67 -0.79,1.11 -1.18,2.9 -1.18,5.36l0 17.58 -11.08 0 0 -18.72c0,-1.49 -0.08,-2.51 -0.22,-3.04 -0.24,-0.85 -0.65,-1.54 -1.23,-2.06 -0.57,-0.53 -1.26,-0.79 -2.04,-0.79 -1.27,0 -2.32,0.57 -3.14,1.69 -0.81,1.14 -1.22,2.99 -1.22,5.58l0 17.34 -11.08 0 0 -33.97zm54.22 17.08c0,-5.19 1.48,-9.46 4.45,-12.82 2.97,-3.36 6.98,-5.04 12.02,-5.04 5.78,0 10.15,1.97 13.1,5.92 2.36,3.18 3.55,7.1 3.55,11.75 0,5.23 -1.47,9.51 -4.41,12.86 -2.94,3.34 -7.01,5.01 -12.21,5.01 -4.63,0 -8.37,-1.39 -11.23,-4.17 -3.52,-3.44 -5.27,-7.94 -5.27,-13.51zm11.08 -0.02c0,3.05 0.52,5.29 1.55,6.74 1.04,1.45 2.34,2.19 3.92,2.19 1.59,0 2.88,-0.72 3.9,-2.15 1.03,-1.43 1.54,-3.73 1.54,-6.9 0,-2.95 -0.51,-5.15 -1.54,-6.6 -1.03,-1.44 -2.3,-2.16 -3.83,-2.16 -1.6,0 -2.93,0.73 -3.98,2.19 -1.04,1.48 -1.56,3.7 -1.56,6.69zm37.51 -6.06l-10.57 -1.31c0.4,-2.18 0.97,-3.9 1.72,-5.14 0.75,-1.25 1.83,-2.33 3.25,-3.25 1.01,-0.67 2.4,-1.18 4.17,-1.54 1.78,-0.36 3.7,-0.54 5.77,-0.54 3.31,0 5.96,0.21 7.98,0.65 2,0.44 3.68,1.35 5.01,2.74 0.95,0.96 1.69,2.32 2.23,4.08 0.55,1.75 0.82,3.43 0.82,5.04l0 15.01c0,1.6 0.08,2.86 0.26,3.76 0.16,0.91 0.54,2.06 1.12,3.47l-10.36 0c-0.42,-0.87 -0.69,-1.53 -0.82,-1.98 -0.12,-0.46 -0.25,-1.17 -0.38,-2.14 -1.45,1.63 -2.89,2.8 -4.32,3.5 -1.96,0.94 -4.23,1.41 -6.82,1.41 -3.44,0 -6.06,-0.94 -7.84,-2.83 -1.79,-1.88 -2.68,-4.2 -2.68,-6.95 0,-2.58 0.64,-4.71 1.93,-6.38 1.29,-1.67 3.66,-2.91 7.12,-3.72 4.15,-0.98 6.84,-1.67 8.07,-2.07 1.24,-0.39 2.55,-0.91 3.92,-1.55 0,-1.6 -0.28,-2.72 -0.85,-3.36 -0.55,-0.64 -1.54,-0.96 -2.95,-0.96 -1.81,0 -3.16,0.34 -4.07,1.02 -0.7,0.55 -1.27,1.55 -1.71,3.04zm9.58 6.8c-1.52,0.65 -3.11,1.22 -4.77,1.72 -2.25,0.71 -3.68,1.4 -4.27,2.09 -0.62,0.71 -0.93,1.52 -0.93,2.42 0,1.04 0.31,1.89 0.91,2.54 0.61,0.66 1.51,0.99 2.68,0.99 1.24,0 2.39,-0.36 3.46,-1.07 1.05,-0.71 1.8,-1.57 2.25,-2.6 0.45,-1.02 0.67,-2.35 0.67,-3.99l0 -2.1zm38.96 2.88l10.52 1.38c-0.58,2.58 -1.53,4.82 -2.85,6.72 -1.32,1.89 -3.02,3.36 -5.08,4.41 -2.05,1.04 -4.67,1.57 -7.84,1.57 -3.07,0 -5.62,-0.34 -7.66,-1.01 -2.03,-0.67 -3.79,-1.76 -5.26,-3.27 -1.47,-1.49 -2.62,-3.26 -3.45,-5.29 -0.84,-2.03 -1.25,-4.71 -1.25,-8.06 0,-3.49 0.51,-6.41 1.52,-8.73 0.74,-1.71 1.76,-3.24 3.05,-4.59 1.29,-1.35 2.61,-2.37 3.97,-3.02 2.16,-1.05 4.93,-1.57 8.29,-1.57 4.73,0 8.32,0.99 10.79,2.96 2.48,1.99 4.21,4.88 5.22,8.69l-10.41 1.63c-0.33,-1.45 -0.92,-2.54 -1.78,-3.28 -0.87,-0.73 -2.03,-1.1 -3.48,-1.1 -1.83,0 -3.32,0.77 -4.46,2.31 -1.13,1.55 -1.69,3.88 -1.69,7.03 0,2.79 0.56,4.9 1.69,6.35 1.12,1.46 2.55,2.18 4.29,2.18 1.45,0 2.67,-0.44 3.66,-1.3 0.99,-0.88 1.72,-2.21 2.21,-4.01zm-12.52 18.61l0.81 -3.79c1.71,-0.49 3.31,-0.74 4.8,-0.74 3.1,0 5.24,0.62 6.42,1.85 1.18,1.24 1.77,2.71 1.77,4.39 0,1.02 -0.27,2.08 -0.8,3.16 -0.53,1.09 -1.5,1.96 -2.87,2.63 -1.38,0.66 -3.22,0.99 -5.5,0.99 -2.07,0 -4.51,-0.27 -7.3,-0.83l0 -3.92c1.89,0.42 3.89,0.63 6.02,0.63 1.56,0 2.61,-0.24 3.16,-0.73 0.56,-0.49 0.84,-1.13 0.84,-1.92 0,-0.61 -0.23,-1.15 -0.68,-1.6 -0.46,-0.44 -1.16,-0.66 -2.13,-0.66 -1.29,0 -2.8,0.18 -4.54,0.54zm26.77 -22.21c0,-5.19 1.49,-9.46 4.46,-12.82 2.96,-3.36 6.97,-5.04 12.02,-5.04 5.78,0 10.14,1.97 13.09,5.92 2.37,3.18 3.55,7.1 3.55,11.75 0,5.23 -1.46,9.51 -4.4,12.86 -2.94,3.34 -7.02,5.01 -12.21,5.01 -4.63,0 -8.38,-1.39 -11.24,-4.17 -3.51,-3.44 -5.27,-7.94 -5.27,-13.51zm11.08 -0.02c0,3.05 0.52,5.29 1.56,6.74 1.04,1.45 2.34,2.19 3.91,2.19 1.59,0 2.89,-0.72 3.91,-2.15 1.02,-1.43 1.53,-3.73 1.53,-6.9 0,-2.95 -0.51,-5.15 -1.54,-6.6 -1.03,-1.44 -2.3,-2.16 -3.82,-2.16 -1.61,0 -2.93,0.73 -3.98,2.19 -1.05,1.48 -1.57,3.7 -1.57,6.69z"/>
  </g>
  <g id="_1994858823600">
   <path fill="#373435" fill-rule="nonzero" d="M163.26 76.93l2.26 0.52c-0.47,1.71 -1.32,3 -2.55,3.9 -1.23,0.89 -2.73,1.34 -4.51,1.34 -1.84,0 -3.33,-0.34 -4.49,-1.03 -1.15,-0.69 -2.03,-1.69 -2.63,-2.99 -0.6,-1.3 -0.9,-2.7 -0.9,-4.2 0,-1.63 0.34,-3.05 1.02,-4.27 0.68,-1.21 1.64,-2.14 2.9,-2.77 1.25,-0.63 2.63,-0.94 4.14,-0.94 1.71,0 3.14,0.4 4.3,1.2 1.17,0.8 1.98,1.91 2.44,3.36l-2.22 0.48c-0.4,-1.14 -0.97,-1.97 -1.72,-2.49 -0.76,-0.52 -1.7,-0.78 -2.85,-0.78 -1.3,0 -2.4,0.29 -3.28,0.87 -0.88,0.57 -1.5,1.35 -1.86,2.32 -0.35,0.98 -0.53,1.98 -0.53,3.01 0,1.33 0.21,2.5 0.63,3.49 0.42,1 1.08,1.74 1.97,2.23 0.89,0.49 1.85,0.74 2.89,0.74 1.27,0 2.33,-0.34 3.21,-1.01 0.87,-0.67 1.47,-1.66 1.78,-2.98zm4.01 -0.18c0,-2.1 0.64,-3.66 1.91,-4.67 1.07,-0.84 2.37,-1.26 3.9,-1.26 1.7,0 3.09,0.51 4.17,1.54 1.08,1.01 1.62,2.43 1.62,4.22 0,1.46 -0.24,2.61 -0.72,3.45 -0.47,0.83 -1.17,1.48 -2.08,1.94 -0.92,0.47 -1.91,0.7 -2.99,0.7 -1.74,0 -3.14,-0.51 -4.21,-1.53 -1.07,-1.02 -1.6,-2.48 -1.6,-4.39zm2.15 0c0,1.45 0.34,2.54 1.04,3.26 0.69,0.72 1.56,1.08 2.62,1.08 1.04,0 1.91,-0.36 2.6,-1.09 0.7,-0.72 1.04,-1.83 1.04,-3.31 0,-1.4 -0.35,-2.47 -1.04,-3.19 -0.7,-0.72 -1.57,-1.08 -2.6,-1.08 -1.06,0 -1.93,0.36 -2.62,1.08 -0.7,0.72 -1.04,1.8 -1.04,3.25zm11.91 5.68l0 -11.37 1.89 0 0 1.62c0.91,-1.24 2.22,-1.86 3.93,-1.86 0.75,0 1.43,0.13 2.06,0.37 0.62,0.25 1.09,0.57 1.4,0.97 0.31,0.4 0.53,0.87 0.66,1.42 0.07,0.36 0.11,0.98 0.11,1.87l0 6.98 -2.1 0 0 -6.91c0,-0.78 -0.08,-1.37 -0.24,-1.76 -0.17,-0.38 -0.46,-0.69 -0.87,-0.93 -0.41,-0.23 -0.9,-0.34 -1.46,-0.34 -0.89,0 -1.66,0.26 -2.31,0.78 -0.65,0.52 -0.97,1.5 -0.97,2.96l0 6.2 -2.1 0zm12.44 -3.4l2.08 -0.3c0.11,0.76 0.44,1.34 0.97,1.75 0.54,0.41 1.28,0.61 2.24,0.61 0.97,0 1.68,-0.18 2.15,-0.54 0.47,-0.36 0.7,-0.78 0.7,-1.27 0,-0.43 -0.21,-0.77 -0.63,-1.02 -0.29,-0.17 -1.01,-0.39 -2.15,-0.65 -1.53,-0.36 -2.59,-0.66 -3.19,-0.92 -0.59,-0.27 -1.04,-0.62 -1.35,-1.08 -0.31,-0.46 -0.46,-0.97 -0.46,-1.52 0,-0.51 0.13,-0.97 0.38,-1.41 0.25,-0.43 0.59,-0.78 1.03,-1.07 0.32,-0.22 0.77,-0.4 1.33,-0.56 0.57,-0.15 1.17,-0.23 1.81,-0.23 0.97,0 1.82,0.13 2.55,0.39 0.74,0.26 1.28,0.61 1.63,1.04 0.35,0.45 0.59,1.03 0.72,1.77l-2.05 0.26c-0.09,-0.59 -0.36,-1.05 -0.81,-1.38 -0.44,-0.34 -1.07,-0.5 -1.89,-0.5 -0.96,0 -1.65,0.15 -2.06,0.44 -0.41,0.29 -0.61,0.63 -0.61,1.02 0,0.25 0.08,0.48 0.25,0.68 0.17,0.2 0.44,0.37 0.81,0.51 0.21,0.07 0.82,0.24 1.85,0.49 1.48,0.36 2.51,0.66 3.1,0.89 0.59,0.23 1.05,0.57 1.38,1.01 0.34,0.44 0.51,0.99 0.51,1.64 0,0.64 -0.2,1.24 -0.61,1.81 -0.41,0.57 -1,1 -1.77,1.31 -0.77,0.31 -1.64,0.47 -2.61,0.47 -1.61,0 -2.84,-0.31 -3.68,-0.92 -0.85,-0.61 -1.38,-1.52 -1.62,-2.72zm17.33 1.68l0.29 1.7c-0.59,0.11 -1.12,0.17 -1.58,0.17 -0.76,0 -1.35,-0.11 -1.77,-0.33 -0.42,-0.22 -0.72,-0.51 -0.89,-0.87 -0.17,-0.37 -0.25,-1.12 -0.25,-2.28l0 -6.55 -1.55 0 0 -1.49 1.55 0 0 -2.81 2.1 -1.15 0 3.96 2.1 0 0 1.49 -2.1 0 0 6.66c0,0.55 0.04,0.9 0.11,1.06 0.07,0.16 0.19,0.28 0.36,0.38 0.17,0.09 0.4,0.13 0.71,0.13 0.24,0 0.54,-0.02 0.92,-0.07zm2.05 1.72l0 -11.37 1.88 0 0 1.74c0.49,-0.8 0.93,-1.33 1.34,-1.59 0.41,-0.26 0.86,-0.39 1.35,-0.39 0.71,0 1.43,0.21 2.16,0.61l-0.75 1.78c-0.51,-0.26 -1.02,-0.39 -1.53,-0.39 -0.45,0 -0.86,0.12 -1.23,0.38 -0.36,0.25 -0.62,0.6 -0.77,1.05 -0.24,0.68 -0.35,1.43 -0.35,2.24l0 5.94 -2.1 0zm16.06 0l0 -1.69c-0.96,1.29 -2.27,1.93 -3.92,1.93 -0.72,0 -1.41,-0.13 -2.04,-0.39 -0.63,-0.25 -1.1,-0.58 -1.41,-0.96 -0.3,-0.39 -0.52,-0.87 -0.64,-1.43 -0.08,-0.38 -0.13,-0.98 -0.13,-1.79l0 -7.04 2.1 0 0 6.29c0,1 0.05,1.68 0.13,2.03 0.13,0.51 0.41,0.9 0.84,1.19 0.43,0.29 0.95,0.43 1.58,0.43 0.63,0 1.22,-0.14 1.76,-0.44 0.55,-0.29 0.94,-0.7 1.18,-1.21 0.22,-0.5 0.34,-1.24 0.34,-2.21l0 -6.08 2.1 0 0 11.37 -1.89 0zm9.74 -1.72l0.29 1.7c-0.59,0.11 -1.12,0.17 -1.58,0.17 -0.76,0 -1.35,-0.11 -1.77,-0.33 -0.42,-0.22 -0.71,-0.51 -0.88,-0.87 -0.17,-0.37 -0.26,-1.12 -0.26,-2.28l0 -6.55 -1.55 0 0 -1.49 1.55 0 0 -2.81 2.1 -1.15 0 3.96 2.1 0 0 1.49 -2.1 0 0 6.66c0,0.55 0.04,0.9 0.12,1.06 0.07,0.16 0.19,0.28 0.35,0.38 0.17,0.09 0.41,0.13 0.72,0.13 0.23,0 0.54,-0.02 0.91,-0.07zm1.29 -3.96c0,-2.1 0.63,-3.66 1.91,-4.67 1.06,-0.84 2.37,-1.26 3.9,-1.26 1.7,0 3.09,0.51 4.17,1.54 1.08,1.01 1.62,2.43 1.62,4.22 0,1.46 -0.24,2.61 -0.72,3.45 -0.48,0.83 -1.17,1.48 -2.09,1.94 -0.91,0.47 -1.9,0.7 -2.98,0.7 -1.74,0 -3.14,-0.51 -4.21,-1.53 -1.07,-1.02 -1.6,-2.48 -1.6,-4.39zm2.15 0c0,1.45 0.34,2.54 1.04,3.26 0.69,0.72 1.56,1.08 2.62,1.08 1.04,0 1.91,-0.36 2.6,-1.09 0.69,-0.72 1.04,-1.83 1.04,-3.31 0,-1.4 -0.35,-2.47 -1.05,-3.19 -0.69,-0.72 -1.56,-1.08 -2.59,-1.08 -1.06,0 -1.93,0.36 -2.62,1.08 -0.7,0.72 -1.04,1.8 -1.04,3.25zm11.89 5.68l0 -11.37 1.88 0 0 1.74c0.48,-0.8 0.93,-1.33 1.34,-1.59 0.41,-0.26 0.86,-0.39 1.35,-0.39 0.71,0 1.43,0.21 2.16,0.61l-0.75 1.78c-0.51,-0.26 -1.02,-0.39 -1.53,-0.39 -0.46,0 -0.86,0.12 -1.23,0.38 -0.36,0.25 -0.62,0.6 -0.77,1.05 -0.24,0.68 -0.35,1.43 -0.35,2.24l0 5.94 -2.1 0zm16.06 -1.43c-0.78,0.61 -1.53,1.04 -2.25,1.29 -0.72,0.25 -1.49,0.38 -2.32,0.38 -1.36,0 -2.41,-0.31 -3.14,-0.91 -0.73,-0.61 -1.1,-1.39 -1.1,-2.33 0,-0.56 0.14,-1.06 0.42,-1.52 0.28,-0.46 0.64,-0.83 1.08,-1.11 0.45,-0.27 0.95,-0.49 1.51,-0.63 0.42,-0.1 1.04,-0.19 1.87,-0.29 1.7,-0.18 2.95,-0.4 3.75,-0.66 0.01,-0.26 0.01,-0.43 0.01,-0.5 0,-0.78 -0.2,-1.33 -0.59,-1.65 -0.54,-0.43 -1.34,-0.65 -2.4,-0.65 -0.99,0 -1.72,0.16 -2.19,0.48 -0.47,0.32 -0.82,0.88 -1.05,1.69l-2.05 -0.26c0.19,-0.81 0.5,-1.46 0.92,-1.96 0.43,-0.5 1.05,-0.88 1.87,-1.15 0.8,-0.26 1.75,-0.4 2.81,-0.4 1.06,0 1.92,0.12 2.59,0.35 0.66,0.23 1.15,0.51 1.46,0.86 0.31,0.34 0.53,0.78 0.65,1.31 0.07,0.33 0.11,0.92 0.11,1.77l0 2.55c0,1.79 0.04,2.92 0.13,3.39 0.08,0.48 0.26,0.94 0.51,1.38l-2.19 0c-0.21,-0.41 -0.35,-0.88 -0.41,-1.43zm-0.17 -4.27c-0.76,0.29 -1.91,0.53 -3.43,0.73 -0.87,0.11 -1.48,0.24 -1.84,0.38 -0.36,0.14 -0.63,0.35 -0.83,0.62 -0.19,0.27 -0.29,0.58 -0.29,0.91 0,0.51 0.21,0.94 0.63,1.28 0.43,0.33 1.05,0.51 1.87,0.51 0.8,0 1.52,-0.16 2.15,-0.49 0.63,-0.32 1.1,-0.76 1.39,-1.32 0.23,-0.43 0.34,-1.07 0.34,-1.92l0.01 -0.7z"/>
   <path fill="#373435" fill-rule="nonzero" d="M305.33 82.43l0 -15.68 2.26 0 0 15.68 -2.26 0zm5.98 0l0 -11.37 1.89 0 0 1.62c0.91,-1.24 2.22,-1.86 3.93,-1.86 0.75,0 1.44,0.13 2.06,0.37 0.63,0.25 1.09,0.57 1.4,0.97 0.32,0.4 0.53,0.87 0.66,1.42 0.07,0.36 0.11,0.98 0.11,1.87l0 6.98 -2.1 0 0 -6.91c0,-0.78 -0.08,-1.37 -0.24,-1.76 -0.16,-0.38 -0.45,-0.69 -0.87,-0.93 -0.41,-0.23 -0.9,-0.34 -1.46,-0.34 -0.89,0 -1.66,0.26 -2.3,0.78 -0.65,0.52 -0.98,1.5 -0.98,2.96l0 6.2 -2.1 0zm21.37 -4.16l2.05 0.26c-0.22,1.3 -0.8,2.31 -1.72,3.04 -0.93,0.73 -2.07,1.1 -3.42,1.1 -1.69,0 -3.05,-0.51 -4.08,-1.52 -1.03,-1.02 -1.54,-2.47 -1.54,-4.36 0,-1.23 0.22,-2.3 0.66,-3.22 0.44,-0.91 1.12,-1.6 2.02,-2.06 0.91,-0.46 1.89,-0.69 2.96,-0.69 1.34,0 2.44,0.31 3.29,0.94 0.85,0.62 1.4,1.51 1.64,2.65l-2.03 0.29c-0.19,-0.76 -0.53,-1.34 -1.03,-1.72 -0.49,-0.39 -1.09,-0.58 -1.79,-0.58 -1.06,0 -1.92,0.35 -2.58,1.04 -0.66,0.7 -0.99,1.79 -0.99,3.29 0,1.53 0.31,2.64 0.95,3.32 0.64,0.69 1.47,1.04 2.5,1.04 0.82,0 1.51,-0.23 2.06,-0.69 0.55,-0.46 0.9,-1.17 1.05,-2.13zm3.06 -1.52c0,-2.1 0.63,-3.66 1.91,-4.67 1.06,-0.84 2.36,-1.26 3.89,-1.26 1.7,0 3.09,0.51 4.18,1.54 1.07,1.01 1.62,2.43 1.62,4.22 0,1.46 -0.24,2.61 -0.72,3.45 -0.48,0.83 -1.17,1.48 -2.09,1.94 -0.91,0.47 -1.91,0.7 -2.99,0.7 -1.73,0 -3.13,-0.51 -4.2,-1.53 -1.07,-1.02 -1.6,-2.48 -1.6,-4.39zm2.14 0c0,1.45 0.35,2.54 1.04,3.26 0.7,0.72 1.57,1.08 2.62,1.08 1.04,0 1.91,-0.36 2.61,-1.09 0.69,-0.72 1.04,-1.83 1.04,-3.31 0,-1.4 -0.35,-2.47 -1.05,-3.19 -0.7,-0.72 -1.56,-1.08 -2.6,-1.08 -1.05,0 -1.92,0.36 -2.62,1.08 -0.69,0.72 -1.04,1.8 -1.04,3.25zm11.89 5.68l0 -11.37 1.89 0 0 1.74c0.48,-0.8 0.93,-1.33 1.34,-1.59 0.4,-0.26 0.85,-0.39 1.34,-0.39 0.71,0 1.43,0.21 2.16,0.61l-0.74 1.78c-0.51,-0.26 -1.02,-0.39 -1.53,-0.39 -0.46,0 -0.87,0.12 -1.23,0.38 -0.36,0.25 -0.62,0.6 -0.78,1.05 -0.23,0.68 -0.35,1.43 -0.35,2.24l0 5.94 -2.1 0zm7.98 4.35l0 -15.72 1.91 0 0 1.5c0.45,-0.58 0.95,-1.01 1.52,-1.3 0.57,-0.29 1.26,-0.44 2.06,-0.44 1.06,0 1.99,0.25 2.8,0.75 0.81,0.5 1.42,1.2 1.83,2.11 0.41,0.91 0.62,1.9 0.62,2.98 0,1.16 -0.23,2.2 -0.68,3.13 -0.46,0.93 -1.12,1.64 -1.98,2.14 -0.87,0.49 -1.78,0.74 -2.73,0.74 -0.7,0 -1.33,-0.14 -1.89,-0.41 -0.55,-0.27 -1.01,-0.61 -1.36,-1.02l0 5.54 -2.1 0zm1.91 -9.97c0,1.46 0.32,2.54 0.96,3.23 0.64,0.7 1.42,1.05 2.34,1.05 0.93,0 1.72,-0.36 2.38,-1.08 0.67,-0.73 1,-1.84 1,-3.36 0,-1.44 -0.32,-2.52 -0.97,-3.24 -0.65,-0.72 -1.42,-1.08 -2.32,-1.08 -0.89,0 -1.68,0.39 -2.36,1.15 -0.69,0.77 -1.03,1.87 -1.03,3.33zm10.57 -0.06c0,-2.1 0.64,-3.66 1.92,-4.67 1.06,-0.84 2.36,-1.26 3.89,-1.26 1.7,0 3.09,0.51 4.17,1.54 1.08,1.01 1.62,2.43 1.62,4.22 0,1.46 -0.24,2.61 -0.71,3.45 -0.48,0.83 -1.18,1.48 -2.09,1.94 -0.91,0.47 -1.91,0.7 -2.99,0.7 -1.73,0 -3.13,-0.51 -4.2,-1.53 -1.07,-1.02 -1.61,-2.48 -1.61,-4.39zm2.15 0c0,1.45 0.35,2.54 1.04,3.26 0.69,0.72 1.57,1.08 2.62,1.08 1.04,0 1.91,-0.36 2.61,-1.09 0.69,-0.72 1.03,-1.83 1.03,-3.31 0,-1.4 -0.35,-2.47 -1.04,-3.19 -0.7,-0.72 -1.57,-1.08 -2.6,-1.08 -1.05,0 -1.93,0.36 -2.62,1.08 -0.69,0.72 -1.04,1.8 -1.04,3.25zm11.89 5.68l0 -11.37 1.89 0 0 1.74c0.48,-0.8 0.92,-1.33 1.33,-1.59 0.41,-0.26 0.86,-0.39 1.35,-0.39 0.71,0 1.43,0.21 2.16,0.61l-0.75 1.78c-0.5,-0.26 -1.01,-0.39 -1.52,-0.39 -0.46,0 -0.87,0.12 -1.23,0.38 -0.37,0.25 -0.62,0.6 -0.78,1.05 -0.23,0.68 -0.35,1.43 -0.35,2.24l0 5.94 -2.1 0zm16.06 -1.43c-0.77,0.61 -1.53,1.04 -2.25,1.29 -0.72,0.25 -1.49,0.38 -2.32,0.38 -1.36,0 -2.4,-0.31 -3.14,-0.91 -0.73,-0.61 -1.09,-1.39 -1.09,-2.33 0,-0.56 0.14,-1.06 0.41,-1.52 0.28,-0.46 0.64,-0.83 1.09,-1.11 0.45,-0.27 0.95,-0.49 1.51,-0.63 0.41,-0.1 1.04,-0.19 1.87,-0.29 1.69,-0.18 2.95,-0.4 3.75,-0.66 0,-0.26 0.01,-0.43 0.01,-0.5 0,-0.78 -0.2,-1.33 -0.6,-1.65 -0.54,-0.43 -1.34,-0.65 -2.39,-0.65 -0.99,0 -1.73,0.16 -2.2,0.48 -0.47,0.32 -0.82,0.88 -1.04,1.69l-2.05 -0.26c0.18,-0.81 0.49,-1.46 0.92,-1.96 0.43,-0.5 1.05,-0.88 1.86,-1.15 0.81,-0.26 1.75,-0.4 2.82,-0.4 1.05,0 1.92,0.12 2.58,0.35 0.66,0.23 1.15,0.51 1.46,0.86 0.31,0.34 0.53,0.78 0.66,1.31 0.07,0.33 0.1,0.92 0.1,1.77l0 2.55c0,1.79 0.05,2.92 0.13,3.39 0.09,0.48 0.26,0.94 0.52,1.38l-2.2 0c-0.21,-0.41 -0.35,-0.88 -0.41,-1.43zm-0.16 -4.27c-0.77,0.29 -1.91,0.53 -3.44,0.73 -0.87,0.11 -1.48,0.24 -1.84,0.38 -0.36,0.14 -0.63,0.35 -0.83,0.62 -0.19,0.27 -0.29,0.58 -0.29,0.91 0,0.51 0.21,0.94 0.64,1.28 0.42,0.33 1.04,0.51 1.86,0.51 0.81,0 1.53,-0.16 2.16,-0.49 0.63,-0.32 1.09,-0.76 1.39,-1.32 0.22,-0.43 0.34,-1.07 0.34,-1.92l0.01 -0.7zm13.34 5.7l0 -1.45c-0.78,1.13 -1.93,1.69 -3.46,1.69 -0.98,0 -1.89,-0.25 -2.71,-0.75 -0.83,-0.5 -1.47,-1.19 -1.93,-2.08 -0.45,-0.9 -0.68,-1.92 -0.68,-3.08 0,-1.13 0.21,-2.16 0.62,-3.08 0.41,-0.92 1.03,-1.63 1.85,-2.12 0.82,-0.49 1.74,-0.74 2.76,-0.74 0.74,0 1.41,0.15 1.99,0.44 0.58,0.29 1.05,0.67 1.42,1.13l0 -5.64 2.1 0 0 15.68 -1.96 0zm-6.63 -5.67c0,1.45 0.33,2.54 1,3.26 0.67,0.71 1.46,1.07 2.38,1.07 0.92,0 1.69,-0.34 2.34,-1.03 0.64,-0.68 0.96,-1.73 0.96,-3.14 0,-1.55 -0.33,-2.69 -0.98,-3.41 -0.65,-0.73 -1.46,-1.09 -2.42,-1.09 -0.93,0 -1.71,0.35 -2.34,1.04 -0.63,0.7 -0.94,1.8 -0.94,3.3zm11.12 -0.01c0,-2.1 0.64,-3.66 1.92,-4.67 1.06,-0.84 2.36,-1.26 3.89,-1.26 1.7,0 3.09,0.51 4.18,1.54 1.07,1.01 1.61,2.43 1.61,4.22 0,1.46 -0.23,2.61 -0.71,3.45 -0.48,0.83 -1.17,1.48 -2.09,1.94 -0.91,0.47 -1.91,0.7 -2.99,0.7 -1.73,0 -3.13,-0.51 -4.2,-1.53 -1.07,-1.02 -1.61,-2.48 -1.61,-4.39zm2.15 0c0,1.45 0.35,2.54 1.04,3.26 0.7,0.72 1.57,1.08 2.62,1.08 1.04,0 1.91,-0.36 2.61,-1.09 0.69,-0.72 1.04,-1.83 1.04,-3.31 0,-1.4 -0.35,-2.47 -1.05,-3.19 -0.7,-0.72 -1.56,-1.08 -2.6,-1.08 -1.05,0 -1.92,0.36 -2.62,1.08 -0.69,0.72 -1.04,1.8 -1.04,3.25zm11.89 5.68l0 -11.37 1.89 0 0 1.74c0.48,-0.8 0.93,-1.33 1.33,-1.59 0.41,-0.26 0.86,-0.39 1.35,-0.39 0.71,0 1.43,0.21 2.16,0.61l-0.74 1.78c-0.51,-0.26 -1.02,-0.39 -1.53,-0.39 -0.46,0 -0.87,0.12 -1.23,0.38 -0.36,0.25 -0.62,0.6 -0.78,1.05 -0.23,0.68 -0.35,1.43 -0.35,2.24l0 5.94 -2.1 0zm16.07 -1.43c-0.78,0.61 -1.53,1.04 -2.26,1.29 -0.71,0.25 -1.49,0.38 -2.31,0.38 -1.36,0 -2.41,-0.31 -3.14,-0.91 -0.73,-0.61 -1.1,-1.39 -1.1,-2.33 0,-0.56 0.14,-1.06 0.41,-1.52 0.28,-0.46 0.64,-0.83 1.09,-1.11 0.45,-0.27 0.95,-0.49 1.51,-0.63 0.41,-0.1 1.04,-0.19 1.87,-0.29 1.69,-0.18 2.95,-0.4 3.75,-0.66 0.01,-0.26 0.01,-0.43 0.01,-0.5 0,-0.78 -0.2,-1.33 -0.6,-1.65 -0.53,-0.43 -1.33,-0.65 -2.39,-0.65 -0.99,0 -1.72,0.16 -2.19,0.48 -0.48,0.32 -0.82,0.88 -1.05,1.69l-2.05 -0.26c0.18,-0.81 0.49,-1.46 0.92,-1.96 0.43,-0.5 1.05,-0.88 1.86,-1.15 0.81,-0.26 1.75,-0.4 2.82,-0.4 1.06,0 1.92,0.12 2.58,0.35 0.67,0.23 1.15,0.51 1.46,0.86 0.31,0.34 0.53,0.78 0.66,1.31 0.07,0.33 0.1,0.92 0.1,1.77l0 2.55c0,1.79 0.05,2.92 0.14,3.39 0.08,0.48 0.25,0.94 0.51,1.38l-2.2 0c-0.21,-0.41 -0.34,-0.88 -0.4,-1.43zm-0.17 -4.27c-0.76,0.29 -1.91,0.53 -3.44,0.73 -0.86,0.11 -1.48,0.24 -1.84,0.38 -0.35,0.14 -0.63,0.35 -0.82,0.62 -0.2,0.27 -0.3,0.58 -0.3,0.91 0,0.51 0.21,0.94 0.64,1.28 0.43,0.33 1.05,0.51 1.86,0.51 0.81,0 1.53,-0.16 2.16,-0.49 0.63,-0.32 1.09,-0.76 1.39,-1.32 0.23,-0.43 0.34,-1.07 0.34,-1.92l0.01 -0.7z"/>
  </g>
  <g id="_1994858824656">
   <path fill="#CF3034" fill-rule="nonzero" d="M291.91 80.57c-0.69,0.7 -1.45,1.22 -2.26,1.57 -0.82,0.35 -1.7,0.53 -2.65,0.53 -1.75,0 -3.14,-0.54 -4.17,-1.62 -0.83,-0.89 -1.25,-1.87 -1.25,-2.95 0,-0.97 0.34,-1.84 1.02,-2.62 0.68,-0.78 1.7,-1.46 3.05,-2.06 -0.78,-0.8 -1.3,-1.46 -1.55,-1.97 -0.26,-0.51 -0.39,-0.99 -0.39,-1.47 0,-0.94 0.4,-1.75 1.21,-2.45 0.8,-0.69 1.81,-1.04 3.04,-1.04 1.16,0 2.12,0.33 2.87,0.98 0.74,0.66 1.11,1.45 1.11,2.37 0,1.49 -1.08,2.77 -3.25,3.83l3.1 3.56c0.35,-0.63 0.62,-1.36 0.82,-2.18l2.17 0.43c-0.37,1.36 -0.88,2.48 -1.52,3.35 0.78,0.95 1.68,1.75 2.67,2.4l-1.41 1.52c-0.84,-0.49 -1.71,-1.22 -2.61,-2.18zm-4.3 -8.14c0.92,-0.5 1.51,-0.93 1.78,-1.3 0.27,-0.38 0.4,-0.79 0.4,-1.24 0,-0.54 -0.18,-0.97 -0.55,-1.31 -0.37,-0.34 -0.84,-0.52 -1.39,-0.52 -0.57,0 -1.05,0.17 -1.43,0.51 -0.37,0.33 -0.57,0.75 -0.57,1.24 0,0.24 0.07,0.5 0.21,0.76 0.14,0.27 0.34,0.56 0.61,0.86l0.94 1zm2.96 6.63l-3.82 -4.38c-1.14,0.62 -1.91,1.19 -2.3,1.72 -0.4,0.53 -0.6,1.05 -0.6,1.57 0,0.63 0.27,1.29 0.83,1.97 0.55,0.68 1.32,1.02 2.33,1.02 0.63,0 1.28,-0.18 1.95,-0.53 0.67,-0.35 1.21,-0.81 1.61,-1.37z"/>
  </g>
 </g>
 <g id="Layer_x0020_3">
  <metadata id="CorelCorpID_1Corel-Layer"/>
  <g id="Backup_of_logo_x0020_p_x0020_premoaço.cdr">
   <path fill="#737476" d="M26.87 37.39l114.44 -0.14c0,0 -5.02,11.82 -10.96,24.54 -2.49,5.33 -11.88,4.87 -15.1,4.87 -5.37,0 -62.37,0.03 -62.37,0.03l-9.17 16.67 -42.19 -0.03 25.35 -45.94 0 0z"/>
   <path fill="#373435" d="M27.17 20.39l31.87 -0.04 -1.45 2.6 37.33 0c1.12,-0.27 2.07,-1.3 2.95,-2.64l43.76 -0.06c0,0 -5.02,11.83 -10.97,24.54 -2.49,5.33 -11.88,4.87 -15.1,4.87 -5.37,0 -62.37,0.03 -62.37,0.03l-9.17 16.68 -42.18 -0.04 25.33 -45.94 0 0z"/>
   <path fill="#CF3034" d="M27.7 2.47l114.44 -0.14c0,0 -5.01,11.83 -10.95,24.54 -2.5,5.33 -11.88,4.87 -15.11,4.87 -5.36,0 -62.36,0.03 -62.36,0.03l-9.18 16.67 -42.19 -0.03 25.35 -45.94 0 0zm34.13 12.9l-4.24 7.58 37.33 0c2.43,-0.58 4,-4.76 5.89,-7.69l-38.98 0.11z"/>
  </g>
 </g>
</svg>
