<?xml version="1.0" encoding="UTF-8"?>
<!DOCTYPE svg PUBLIC "-//W3C//DTD SVG 1.1//EN" "http://www.w3.org/Graphics/SVG/1.1/DTD/svg11.dtd">
<!-- Creator: CorelDRAW 2021 (64-Bit) -->
<svg xmlns="http://www.w3.org/2000/svg" xml:space="preserve" width="400px" height="300px" version="1.1" style="shape-rendering:geometricPrecision; text-rendering:geometricPrecision; image-rendering:optimizeQuality; fill-rule:evenodd; clip-rule:evenodd"
viewBox="0 0 400 300"
 xmlns:xlink="http://www.w3.org/1999/xlink"
 xmlns:xodm="http://www.corel.com/coreldraw/odm/2003">
 <defs>
  <style type="text/css">
   <![CDATA[
    .fil0 {fill:#1D3557}
   ]]>
  </style>
 </defs>
 <g id="Layer_x0020_1">
  <metadata id="CorelCorpID_0Corel-Layer"/>
  <path class="fil0" d="M90.428 252.005l-16.478 -22.856 7.401 -5.335c2.804,-2.022 4.709,-3.225 5.725,-3.611 1.559,-0.597 3.191,-0.641 4.903,-0.129 1.712,0.512 3.224,1.678 4.536,3.498 1.012,1.404 1.604,2.764 1.789,4.087 0.18,1.325 0.076,2.539 -0.31,3.651 -0.391,1.106 -0.928,2.043 -1.611,2.802 -0.944,1.013 -2.454,2.271 -4.539,3.774l-3.001 2.164 6.213 8.619 -4.628 3.336zm-9.064 -22.33l4.694 6.512 2.517 -1.814c1.814,-1.308 2.934,-2.301 3.373,-2.981 0.439,-0.681 0.649,-1.398 0.623,-2.164 -0.022,-0.761 -0.273,-1.478 -0.763,-2.159 -0.602,-0.835 -1.342,-1.345 -2.218,-1.538 -0.88,-0.19 -1.738,-0.09 -2.587,0.313 -0.621,0.294 -1.761,1.035 -3.421,2.231l-2.218 1.6zm21.259 -3.619c-1.68,-2.33 -2.739,-4.541 -3.187,-6.629 -0.323,-1.537 -0.366,-3.099 -0.134,-4.673 0.232,-1.574 0.721,-2.97 1.464,-4.193 0.994,-1.629 2.418,-3.118 4.28,-4.46 3.374,-2.432 6.822,-3.325 10.356,-2.695 3.533,0.639 6.641,2.82 9.331,6.55 2.665,3.698 3.747,7.316 3.243,10.848 -0.498,3.537 -2.433,6.517 -5.79,8.937 -3.399,2.451 -6.855,3.366 -10.36,2.732 -3.503,-0.629 -6.571,-2.767 -9.203,-6.417zm4.645 -3.583c1.868,2.591 3.884,4.121 6.048,4.599 2.16,0.472 4.165,0.046 6.006,-1.282 1.846,-1.331 2.877,-3.084 3.109,-5.265 0.222,-2.182 -0.622,-4.597 -2.536,-7.252 -1.89,-2.623 -3.876,-4.166 -5.959,-4.622 -2.081,-0.465 -4.073,-0.007 -5.983,1.37 -1.904,1.373 -2.97,3.136 -3.195,5.279 -0.222,2.149 0.612,4.54 2.51,7.173zm29.282 -3.717l-16.478 -22.856 9.721 -7.008c2.442,-1.761 4.368,-2.834 5.771,-3.223 1.407,-0.391 2.816,-0.299 4.236,0.269 1.424,0.574 2.623,1.53 3.597,2.881 1.239,1.719 1.759,3.495 1.559,5.337 -0.2,1.842 -1.194,3.626 -2.984,5.361 1.413,-0.138 2.693,-0.09 3.839,0.143 1.152,0.229 2.917,0.839 5.294,1.826l6.003 2.449 -5.518 3.977 -6.906 -2.604c-2.464,-0.917 -4.084,-1.447 -4.858,-1.591 -0.767,-0.144 -1.46,-0.129 -2.072,0.053 -0.618,0.186 -1.455,0.662 -2.52,1.429l-0.937 0.675 6.881 9.545 -4.628 3.337zm-4.876 -16.522l3.416 -2.462c2.213,-1.596 3.522,-2.684 3.941,-3.27 0.414,-0.581 0.616,-1.22 0.595,-1.9 -0.016,-0.684 -0.276,-1.37 -0.771,-2.056 -0.556,-0.771 -1.208,-1.239 -1.963,-1.423 -0.752,-0.177 -1.546,-0.058 -2.38,0.357 -0.416,0.219 -1.557,1.002 -3.425,2.348l-3.601 2.597 4.188 5.809zm33.068 -3.803l-13.693 -18.994 -6.768 4.879 -2.784 -3.862 18.132 -13.072 2.785 3.863 -6.736 4.856 13.693 18.994 -4.629 3.336zm4.689 -20.538c-1.68,-2.33 -2.74,-4.54 -3.187,-6.629 -0.323,-1.537 -0.366,-3.099 -0.135,-4.672 0.233,-1.575 0.722,-2.971 1.465,-4.193 0.993,-1.63 2.418,-3.119 4.28,-4.461 3.373,-2.432 6.822,-3.324 10.355,-2.694 3.533,0.639 6.642,2.82 9.331,6.549 2.666,3.698 3.747,7.317 3.244,10.849 -0.498,3.537 -2.433,6.516 -5.79,8.937 -3.4,2.45 -6.856,3.365 -10.361,2.731 -3.502,-0.629 -6.571,-2.767 -9.202,-6.417zm4.645 -3.582c1.868,2.591 3.884,4.121 6.048,4.598 2.159,0.473 4.164,0.046 6.005,-1.281 1.846,-1.331 2.878,-3.085 3.109,-5.266 0.222,-2.181 -0.621,-4.596 -2.535,-7.251 -1.891,-2.623 -3.877,-4.167 -5.96,-4.623 -2.081,-0.464 -4.073,-0.006 -5.982,1.371 -1.904,1.372 -2.97,3.136 -3.196,5.279 -0.222,2.148 0.612,4.54 2.511,7.173zm57.554 -24.1l-4.985 3.593 -5.725 -3.78 -9.168 6.609 1.852 6.573 -4.894 3.528 -7.603 -29.254 4.89 -3.525 25.633 16.256zm-14.996 -2.968l-9.274 -6.17 3.013 10.685 6.261 -4.515zm17.587 1.1l-16.339 -22.664 4.629 -3.337 13.554 18.802 11.46 -8.262 2.785 3.863 -16.089 11.598zm19.371 -13.965l-16.477 -22.856 16.918 -12.197 2.785 3.862 -12.29 8.86 3.659 5.076 11.428 -8.239 2.785 3.863 -11.428 8.239 4.465 6.193 12.737 -9.183 2.784 3.863 -17.366 12.519zm25.87 -31.409l-2.785 -3.862 9.928 -7.158 6.574 9.119c-0.284,1.636 -1.089,3.47 -2.407,5.511 -1.315,2.033 -2.915,3.728 -4.799,5.085 -2.389,1.722 -4.829,2.722 -7.331,2.998 -2.497,0.272 -4.872,-0.207 -7.111,-1.431 -2.241,-1.223 -4.157,-2.938 -5.741,-5.135 -1.719,-2.384 -2.745,-4.862 -3.089,-7.436 -0.333,-2.573 0.096,-5.049 1.303,-7.424 0.92,-1.819 2.468,-3.509 4.649,-5.081 2.835,-2.045 5.484,-3.048 7.939,-3.007 2.454,0.051 4.665,0.954 6.642,2.731l-3.975 4.176c-1.129,-0.893 -2.376,-1.344 -3.736,-1.358 -1.351,-0.012 -2.692,0.462 -4.022,1.42 -2.011,1.45 -3.152,3.242 -3.414,5.381 -0.262,2.137 0.511,4.466 2.325,6.983 1.96,2.718 4.03,4.322 6.211,4.812 2.186,0.486 4.251,0.032 6.204,-1.376 0.963,-0.694 1.793,-1.584 2.488,-2.659 0.703,-1.08 1.199,-2.141 1.505,-3.187l-2.091 -2.899 -5.267 3.797zm20.252 -1.842l-16.477 -22.855 9.72 -7.008c2.442,-1.761 4.369,-2.834 5.771,-3.223 1.407,-0.391 2.816,-0.299 4.236,0.27 1.425,0.573 2.623,1.529 3.598,2.88 1.239,1.719 1.758,3.495 1.559,5.337 -0.201,1.842 -1.195,3.626 -2.985,5.361 1.414,-0.137 2.693,-0.09 3.84,0.143 1.151,0.229 2.917,0.84 5.294,1.827l6.003 2.448 -5.518 3.978 -6.907 -2.605c-2.464,-0.917 -4.083,-1.447 -4.858,-1.591 -0.766,-0.143 -1.46,-0.129 -2.072,0.054 -0.617,0.186 -1.455,0.661 -2.519,1.428l-0.937 0.675 6.881 9.545 -4.629 3.336zm-4.875 -16.52l3.415 -2.463c2.214,-1.595 3.523,-2.684 3.942,-3.269 0.413,-0.582 0.616,-1.22 0.595,-1.9 -0.016,-0.684 -0.276,-1.37 -0.771,-2.057 -0.557,-0.772 -1.209,-1.239 -1.964,-1.423 -0.751,-0.177 -1.546,-0.057 -2.379,0.357 -0.416,0.219 -1.557,1.002 -3.425,2.349l-3.602 2.596 4.189 5.81zm27.928 -0.099l-16.477 -22.856 16.919 -12.197 2.784 3.863 -12.29 8.86 3.659 5.076 11.428 -8.239 2.785 3.863 -11.428 8.238 4.465 6.193 12.737 -9.182 2.784 3.862 -17.366 12.519zm-156.346 186.724l-146.421 11.768 57.439 -135.197 19.258 26.714 222.21 -161.517 50.466 70.004 -222.21 161.515 19.258 26.713z"/>
 </g>
</svg>
