<?xml version="1.0" encoding="UTF-8"?>
<!DOCTYPE svg PUBLIC "-//W3C//DTD SVG 1.1//EN" "http://www.w3.org/Graphics/SVG/1.1/DTD/svg11.dtd">
<!-- Creator: CorelDRAW 2021 (64-Bit) -->
<svg xmlns="http://www.w3.org/2000/svg" xml:space="preserve" width="400px" height="300px" version="1.1" style="shape-rendering:geometricPrecision; text-rendering:geometricPrecision; image-rendering:optimizeQuality; fill-rule:evenodd; clip-rule:evenodd"
viewBox="0 0 400 300"
 xmlns:xlink="http://www.w3.org/1999/xlink"
 xmlns:xodm="http://www.corel.com/coreldraw/odm/2003">
 <defs>
  <style type="text/css">
   <![CDATA[
    .fil0 {fill:#1D3557}
   ]]>
  </style>
 </defs>
 <g id="Layer_x0020_1">
  <metadata id="CorelCorpID_0Corel-Layer"/>
  <path class="fil0" d="M370 246l-337 0 0 -179.988 337 0 0 179.988zm-296.39 -80.292l10.857 -1.076c0.654,3.631 1.964,6.288 3.953,7.995 1.99,1.706 4.672,2.554 8.048,2.554 3.568,0 6.263,-0.758 8.073,-2.271 1.809,-1.515 2.721,-3.286 2.721,-5.314 0,-1.31 -0.386,-2.413 -1.142,-3.337 -0.758,-0.913 -2.093,-1.708 -3.992,-2.374 -1.297,-0.463 -4.249,-1.259 -8.868,-2.413 -5.943,-1.489 -10.115,-3.311 -12.514,-5.48 -3.376,-3.042 -5.057,-6.751 -5.057,-11.128 0,-2.811 0.795,-5.455 2.373,-7.907 1.592,-2.452 3.877,-4.312 6.867,-5.595 2.99,-1.283 6.584,-1.925 10.82,-1.925 6.892,0 12.089,1.527 15.568,4.594 3.491,3.067 5.314,7.149 5.494,12.27l-11.167 0.386c-0.475,-2.85 -1.488,-4.892 -3.042,-6.136 -1.552,-1.245 -3.889,-1.874 -6.995,-1.874 -3.208,0 -5.724,0.668 -7.534,2.003 -1.166,0.859 -1.757,2.001 -1.757,3.439 0,1.309 0.552,2.426 1.655,3.35 1.4,1.194 4.801,2.426 10.203,3.709 5.404,1.271 9.396,2.606 11.975,3.965 2.593,1.374 4.62,3.235 6.084,5.609 1.464,2.374 2.194,5.302 2.194,8.779 0,3.157 -0.872,6.123 -2.63,8.882 -1.759,2.76 -4.236,4.813 -7.445,6.147 -3.208,1.349 -7.213,2.015 -12,2.015 -6.969,0 -12.322,-1.603 -16.057,-4.826 -3.733,-3.208 -5.953,-7.893 -6.685,-14.041zm89.56 -2.464l10.781 3.313c-1.656,6.07 -4.416,10.574 -8.266,13.526 -3.85,2.94 -8.727,4.416 -14.644,4.416 -7.329,0 -13.348,-2.503 -18.071,-7.509 -4.711,-5.005 -7.073,-11.846 -7.073,-20.534 0,-9.178 2.376,-16.314 7.112,-21.397 4.735,-5.082 10.974,-7.622 18.699,-7.622 6.751,0 12.232,2.001 16.442,5.993 2.515,2.361 4.389,5.75 5.647,10.178l-11.013 2.618c-0.654,-2.849 -2.015,-5.108 -4.081,-6.763 -2.079,-1.657 -4.595,-2.478 -7.547,-2.478 -4.094,0 -7.417,1.463 -9.959,4.403 -2.555,2.926 -3.825,7.675 -3.825,14.246 0,6.956 1.258,11.923 3.761,14.875 2.516,2.965 5.775,4.441 9.792,4.441 2.966,0 5.519,-0.937 7.65,-2.823 2.13,-1.888 3.67,-4.84 4.595,-8.883zm19.034 5.621l0 -10.549 20.792 0 0 10.549 -20.792 0zm45.279 14.71l0 -11.089 -22.485 0 0 -9.203 23.846 -35.077 8.881 0 0 35.038 6.854 0 0 9.242 -6.854 0 0 11.089 -10.242 0zm0 -20.331l0 -18.828 -12.604 18.828 12.604 0zm31.227 -9.484c-2.722,-1.156 -4.711,-2.734 -5.943,-4.762 -1.245,-2.015 -1.862,-4.235 -1.862,-6.634 0,-4.121 1.438,-7.522 4.3,-10.205 2.863,-2.682 6.943,-4.029 12.218,-4.029 5.238,0 9.293,1.347 12.182,4.029 2.886,2.683 4.337,6.084 4.337,10.205 0,2.552 -0.668,4.824 -2.002,6.827 -1.323,1.988 -3.196,3.516 -5.609,4.569 3.068,1.232 5.391,3.028 6.994,5.39 1.593,2.374 2.389,5.096 2.389,8.188 0,5.109 -1.618,9.254 -4.865,12.45 -3.235,3.196 -7.546,4.787 -12.938,4.787 -5.004,0 -9.164,-1.322 -12.5,-3.965 -3.927,-3.106 -5.892,-7.393 -5.892,-12.821 0,-2.991 0.745,-5.738 2.221,-8.241 1.476,-2.502 3.799,-4.428 6.97,-5.788zm2.206 -10.627c0,2.105 0.591,3.76 1.771,4.94 1.195,1.181 2.774,1.772 4.736,1.772 2.003,0 3.594,-0.603 4.789,-1.796 1.193,-1.194 1.796,-2.85 1.796,-4.955 0,-1.989 -0.591,-3.58 -1.771,-4.775 -1.194,-1.193 -2.76,-1.796 -4.697,-1.796 -2.028,0 -3.633,0.603 -4.826,1.81 -1.193,1.206 -1.798,2.811 -1.798,4.8zm-1 23.641c0,2.94 0.744,5.224 2.232,6.866 1.49,1.644 3.338,2.464 5.558,2.464 2.181,0 3.979,-0.795 5.404,-2.374 1.425,-1.578 2.13,-3.862 2.13,-6.841 0,-2.606 -0.718,-4.697 -2.169,-6.276 -1.45,-1.578 -3.286,-2.373 -5.507,-2.373 -2.579,0 -4.491,0.898 -5.762,2.694 -1.257,1.798 -1.886,3.735 -1.886,5.84zm68.317 -24.835l-10.241 1.13c-0.244,-2.105 -0.899,-3.658 -1.951,-4.66 -1.052,-1 -2.413,-1.501 -4.094,-1.501 -2.233,0 -4.121,1.001 -5.661,3.004 -1.539,2.001 -2.502,6.173 -2.9,12.514 2.632,-3.107 5.892,-4.66 9.805,-4.66 4.402,0 8.189,1.681 11.333,5.045 3.145,3.374 4.711,7.713 4.711,13.039 0,5.647 -1.656,10.19 -4.967,13.604 -3.311,3.415 -7.559,5.121 -12.745,5.121 -5.558,0 -10.14,-2.169 -13.72,-6.507 -3.581,-4.338 -5.377,-11.435 -5.377,-21.317 0,-10.127 1.874,-17.43 5.607,-21.909 3.735,-4.48 8.588,-6.712 14.555,-6.712 4.185,0 7.65,1.181 10.396,3.542 2.747,2.348 4.492,5.776 5.249,10.267zm-23.949 23.077c0,3.439 0.795,6.096 2.376,7.97 1.578,1.874 3.374,2.811 5.414,2.811 1.952,0 3.582,-0.77 4.892,-2.297 1.295,-1.541 1.949,-4.056 1.949,-7.548 0,-3.593 -0.705,-6.224 -2.103,-7.905 -1.413,-1.669 -3.158,-2.503 -5.263,-2.503 -2.042,0 -3.748,0.795 -5.16,2.4 -1.398,1.591 -2.105,3.953 -2.105,7.072z"/>
 </g>
</svg>
