<?xml version="1.0" encoding="UTF-8"?>
<!DOCTYPE svg PUBLIC "-//W3C//DTD SVG 1.1//EN" "http://www.w3.org/Graphics/SVG/1.1/DTD/svg11.dtd">
<!-- Creator: CorelDRAW 2021 (64-Bit) -->
<svg xmlns="http://www.w3.org/2000/svg" xml:space="preserve" width="300px" height="400px" version="1.1" style="shape-rendering:geometricPrecision; text-rendering:geometricPrecision; image-rendering:optimizeQuality; fill-rule:evenodd; clip-rule:evenodd"
viewBox="0 0 300 399.999"
 xmlns:xlink="http://www.w3.org/1999/xlink"
 xmlns:xodm="http://www.corel.com/coreldraw/odm/2003">
 <defs>
  <style type="text/css">
   <![CDATA[
    .fil0 {fill:#E94D59}
   ]]>
  </style>
 </defs>
 <g id="Layer_x0020_1">
  <metadata id="CorelCorpID_0Corel-Layer"/>
  <path class="fil0" d="M228.504 213.225l-24.654 133.775 -107.109 -83.851 28.516 -10.805 -74.257 -195.987 74.731 -28.315 74.257 195.988 28.516 -10.805zm-121.264 -146.293c-0.341,0.13 -0.628,0.226 -0.87,0.286 -0.242,0.058 -0.444,0.083 -0.607,0.072 -0.157,-0.013 -0.287,-0.043 -0.379,-0.094 -0.1,-0.054 -0.17,-0.133 -0.208,-0.231l-2.729 -7.171 -5.888 2.242 2.56 6.726c0.04,0.104 0.046,0.207 0.017,0.304 -0.021,0.101 -0.093,0.207 -0.202,0.321 -0.114,0.117 -0.278,0.225 -0.492,0.339 -0.214,0.115 -0.49,0.24 -0.831,0.37 -0.335,0.128 -0.624,0.218 -0.86,0.274 -0.237,0.058 -0.437,0.087 -0.611,0.081 -0.168,-0.009 -0.299,-0.038 -0.393,-0.095 -0.092,-0.051 -0.156,-0.132 -0.196,-0.236l-2.56 -6.726 -8.157 3.106c-0.121,0.045 -0.244,0.053 -0.363,0.019 -0.111,-0.031 -0.232,-0.123 -0.363,-0.278 -0.13,-0.149 -0.264,-0.363 -0.404,-0.627 -0.142,-0.27 -0.298,-0.627 -0.465,-1.065 -0.163,-0.427 -0.281,-0.792 -0.357,-1.094 -0.075,-0.301 -0.117,-0.55 -0.117,-0.742 -0.006,-0.189 0.029,-0.341 0.086,-0.449 0.064,-0.11 0.161,-0.186 0.282,-0.233l19.847 -7.555c0.497,-0.189 0.903,-0.198 1.22,-0.027 0.315,0.17 0.544,0.44 0.686,0.815l3.928 10.316c0.037,0.098 0.043,0.202 0.011,0.307 -0.036,0.099 -0.107,0.206 -0.228,0.324 -0.114,0.116 -0.287,0.235 -0.513,0.354 -0.225,0.119 -0.51,0.24 -0.844,0.367zm-12.262 22.554c-0.334,0.127 -0.627,0.225 -0.869,0.284 -0.242,0.059 -0.45,0.085 -0.62,0.09 -0.178,0.002 -0.314,-0.025 -0.411,-0.088 -0.102,-0.06 -0.173,-0.145 -0.215,-0.255l-3.817 -10.027c-0.141,-0.37 -0.15,-0.723 -0.027,-1.061 0.123,-0.337 0.432,-0.6 0.928,-0.789l19.882 -7.569c0.11,-0.042 0.227,-0.047 0.348,-0.007 0.115,0.043 0.236,0.135 0.358,0.281 0.121,0.145 0.249,0.36 0.394,0.636 0.145,0.276 0.298,0.626 0.46,1.054 0.168,0.439 0.289,0.809 0.361,1.105 0.072,0.29 0.119,0.537 0.125,0.726 0.007,0.19 -0.023,0.339 -0.08,0.447 -0.065,0.111 -0.156,0.185 -0.265,0.226l-17.613 6.705 2.617 6.876c0.042,0.109 0.053,0.224 0.02,0.329 -0.03,0.111 -0.102,0.218 -0.225,0.33 -0.116,0.111 -0.286,0.222 -0.512,0.34 -0.219,0.118 -0.498,0.237 -0.839,0.367zm17.6 18.138c-1.813,0.69 -3.521,1.082 -5.124,1.178 -1.603,0.094 -3.076,-0.112 -4.41,-0.629 -1.337,-0.509 -2.518,-1.321 -3.543,-2.432 -1.026,-1.116 -1.864,-2.536 -2.521,-4.262 -0.648,-1.702 -0.988,-3.272 -1.024,-4.706 -0.04,-1.438 0.234,-2.753 0.828,-3.95 0.592,-1.19 1.51,-2.267 2.759,-3.224 1.248,-0.958 2.835,-1.807 4.763,-2.541 1.766,-0.672 3.446,-1.054 5.031,-1.142 1.586,-0.088 3.042,0.125 4.376,0.641 1.331,0.512 2.512,1.324 3.536,2.435 1.033,1.113 1.878,2.536 2.54,4.274 0.631,1.657 0.967,3.201 1.012,4.638 0.043,1.431 -0.228,2.751 -0.824,3.949 -0.586,1.201 -1.491,2.279 -2.718,3.242 -1.232,0.965 -2.788,1.808 -4.681,2.529zm-2.006 -4.59c1.149,-0.438 2.159,-0.928 3.032,-1.465 0.872,-0.537 1.565,-1.151 2.069,-1.839 0.505,-0.687 0.805,-1.463 0.9,-2.325 0.089,-0.86 -0.069,-1.831 -0.48,-2.91 -0.416,-1.092 -0.971,-1.924 -1.657,-2.496 -0.689,-0.577 -1.47,-0.96 -2.328,-1.149 -0.859,-0.189 -1.782,-0.201 -2.77,-0.037 -0.994,0.167 -1.999,0.444 -3.027,0.836 -1.195,0.455 -2.233,0.955 -3.118,1.497 -0.884,0.541 -1.582,1.158 -2.1,1.844 -0.513,0.685 -0.81,1.451 -0.893,2.309 -0.077,0.856 0.089,1.83 0.505,2.922 0.415,1.09 0.964,1.926 1.651,2.497 0.683,0.579 1.463,0.964 2.334,1.147 0.87,0.184 1.804,0.193 2.804,0.023 1,-0.168 2.028,-0.454 3.078,-0.854zm-1.01 28.633c-0.121,0.046 -0.234,0.063 -0.338,0.049 -0.104,-0.013 -0.213,-0.091 -0.335,-0.236 -0.117,-0.153 -0.25,-0.38 -0.398,-0.7 -0.149,-0.321 -0.329,-0.761 -0.543,-1.321 -0.18,-0.474 -0.311,-0.853 -0.395,-1.145 -0.085,-0.291 -0.131,-0.532 -0.129,-0.718 0.002,-0.186 0.034,-0.33 0.105,-0.436 0.074,-0.101 0.168,-0.203 0.283,-0.299l4.15 -3.84c0.463,-0.448 0.872,-0.868 1.214,-1.256 0.347,-0.39 0.608,-0.78 0.791,-1.167 0.183,-0.387 0.273,-0.792 0.285,-1.212 0.008,-0.413 -0.077,-0.863 -0.257,-1.337l-0.529 -1.391 -8.365 3.184c-0.11,0.042 -0.227,0.047 -0.342,0.005 -0.121,-0.04 -0.243,-0.133 -0.364,-0.278 -0.116,-0.148 -0.247,-0.355 -0.39,-0.625 -0.139,-0.264 -0.296,-0.621 -0.46,-1.053 -0.163,-0.428 -0.282,-0.793 -0.357,-1.094 -0.075,-0.302 -0.115,-0.545 -0.127,-0.732 -0.007,-0.19 0.023,-0.339 0.086,-0.436 0.065,-0.104 0.156,-0.178 0.266,-0.22l19.882 -7.569c0.495,-0.188 0.902,-0.198 1.219,-0.027 0.315,0.17 0.544,0.44 0.685,0.809l2.157 5.669c0.219,0.572 0.389,1.056 0.507,1.434 0.117,0.378 0.218,0.73 0.306,1.047 0.206,0.926 0.294,1.797 0.256,2.619 -0.032,0.818 -0.202,1.57 -0.506,2.248 -0.303,0.677 -0.738,1.272 -1.309,1.787 -0.571,0.515 -1.29,0.934 -2.162,1.265 -0.727,0.277 -1.432,0.44 -2.103,0.484 -0.678,0.041 -1.319,-0.027 -1.93,-0.211 -0.61,-0.177 -1.189,-0.466 -1.738,-0.865 -0.554,-0.397 -1.062,-0.897 -1.538,-1.489 -0.031,0.388 -0.105,0.766 -0.22,1.141 -0.116,0.374 -0.289,0.751 -0.516,1.128 -0.226,0.377 -0.498,0.757 -0.828,1.141 -0.324,0.381 -0.708,0.778 -1.147,1.19l-3.618 3.499c-0.364,0.331 -0.63,0.565 -0.814,0.693 -0.174,0.133 -0.318,0.221 -0.434,0.265zm12.677 -11.409c0.722,-0.275 1.271,-0.669 1.637,-1.185 0.371,-0.518 0.519,-1.189 0.437,-2.011 -0.028,-0.247 -0.084,-0.515 -0.159,-0.818 -0.075,-0.302 -0.209,-0.706 -0.403,-1.214l-0.76 -1.998 -6.201 2.36 0.864 2.269c0.242,0.635 0.526,1.155 0.862,1.569 0.332,0.422 0.695,0.733 1.093,0.945 0.393,0.215 0.817,0.324 1.258,0.334 0.44,0.011 0.898,-0.071 1.372,-0.251zm-9.702 19.12c-0.11,0.041 -0.227,0.046 -0.348,0.007 -0.115,-0.043 -0.236,-0.135 -0.358,-0.281 -0.115,-0.147 -0.249,-0.361 -0.389,-0.624 -0.142,-0.271 -0.298,-0.627 -0.465,-1.067 -0.163,-0.426 -0.282,-0.791 -0.357,-1.093 -0.076,-0.302 -0.117,-0.55 -0.129,-0.737 -0.006,-0.19 0.023,-0.339 0.081,-0.448 0.063,-0.11 0.155,-0.184 0.264,-0.226l20.679 -7.872c0.109,-0.041 0.226,-0.046 0.347,-0.006 0.116,0.042 0.236,0.135 0.363,0.291 0.123,0.152 0.249,0.362 0.391,0.631 0.143,0.27 0.296,0.621 0.459,1.049 0.167,0.438 0.288,0.809 0.361,1.104 0.071,0.291 0.119,0.537 0.125,0.727 0.006,0.189 -0.023,0.339 -0.082,0.447 -0.063,0.11 -0.154,0.184 -0.264,0.226l-20.678 7.872zm9.69 22.293c-0.354,0.287 -0.645,0.496 -0.868,0.621 -0.224,0.125 -0.42,0.147 -0.588,0.072 -0.164,-0.084 -0.322,-0.274 -0.472,-0.581 -0.147,-0.3 -0.325,-0.735 -0.534,-1.283 -0.22,-0.577 -0.386,-1.03 -0.489,-1.354 -0.106,-0.33 -0.164,-0.586 -0.178,-0.779 -0.011,-0.187 0.014,-0.329 0.08,-0.433 0.06,-0.103 0.159,-0.206 0.288,-0.302l3.852 -3.111 -3.143 -8.256 -4.802 0.249c-0.18,0.016 -0.335,0.008 -0.467,-0.027 -0.136,-0.028 -0.263,-0.118 -0.387,-0.256 -0.126,-0.138 -0.254,-0.353 -0.391,-0.645 -0.138,-0.29 -0.299,-0.679 -0.483,-1.164 -0.198,-0.52 -0.335,-0.93 -0.412,-1.238 -0.078,-0.307 -0.074,-0.54 0.012,-0.698 0.089,-0.166 0.258,-0.277 0.507,-0.333 0.25,-0.055 0.595,-0.087 1.044,-0.106l21.992 -0.652c0.215,-0.009 0.402,0.013 0.552,0.061 0.155,0.04 0.296,0.152 0.434,0.324 0.141,0.178 0.284,0.434 0.436,0.779 0.149,0.34 0.331,0.8 0.55,1.377 0.253,0.664 0.449,1.197 0.581,1.596 0.135,0.406 0.211,0.726 0.231,0.97 0.02,0.243 -0.013,0.435 -0.097,0.579 -0.092,0.141 -0.227,0.291 -0.416,0.436l-16.832 14.154zm12.247 -16.163l-0.007 -0.017 -10.471 0.497 2.338 6.142 8.14 -6.622zm-4.309 37.312c-0.26,0.099 -0.509,0.14 -0.75,0.133 -0.237,-0.016 -0.45,-0.074 -0.648,-0.176 -0.19,-0.1 -0.356,-0.241 -0.499,-0.425 -0.144,-0.19 -0.252,-0.386 -0.334,-0.6l-0.723 -1.899c-0.152,-0.398 -0.241,-0.755 -0.276,-1.072 -0.026,-0.313 0.017,-0.634 0.133,-0.955 0.113,-0.328 0.307,-0.666 0.58,-1.028 0.266,-0.359 0.631,-0.789 1.09,-1.287l8.167 -9.329c0.491,-0.55 1.028,-1.118 1.608,-1.715 0.578,-0.597 1.155,-1.148 1.72,-1.66l-0.013 -0.035c-0.797,0.356 -1.591,0.698 -2.39,1.029 -0.794,0.329 -1.627,0.659 -2.481,0.985l-11.459 4.362c-0.11,0.041 -0.225,0.052 -0.342,0.024 -0.11,-0.031 -0.227,-0.111 -0.347,-0.238 -0.121,-0.126 -0.247,-0.316 -0.38,-0.562 -0.134,-0.247 -0.278,-0.575 -0.433,-0.98 -0.151,-0.398 -0.259,-0.733 -0.323,-1.007 -0.064,-0.273 -0.095,-0.492 -0.087,-0.661 0.001,-0.172 0.042,-0.307 0.109,-0.391 0.07,-0.093 0.163,-0.162 0.273,-0.204l19.674 -7.489c0.531,-0.202 0.988,-0.197 1.373,0.013 0.382,0.205 0.66,0.536 0.833,0.991l0.908 2.384c0.163,0.428 0.266,0.805 0.303,1.127 0.037,0.324 0.015,0.63 -0.065,0.924 -0.079,0.295 -0.232,0.604 -0.455,0.921 -0.218,0.314 -0.514,0.665 -0.871,1.045l-6.388 7.303c-0.39,0.433 -0.777,0.857 -1.153,1.277 -0.374,0.421 -0.752,0.836 -1.137,1.234 -0.381,0.403 -0.76,0.798 -1.128,1.183 -0.373,0.392 -0.744,0.772 -1.117,1.146l0.006 0.017c0.778,-0.336 1.592,-0.679 2.44,-1.022 0.853,-0.344 1.671,-0.662 2.451,-0.959l10.276 -3.911c0.109,-0.042 0.226,-0.047 0.344,-0.013 0.112,0.031 0.236,0.115 0.364,0.244 0.132,0.136 0.257,0.326 0.385,0.575 0.127,0.248 0.267,0.579 0.42,0.983 0.148,0.387 0.259,0.715 0.329,0.985 0.07,0.271 0.099,0.485 0.084,0.656 -0.016,0.165 -0.058,0.299 -0.125,0.384 -0.07,0.093 -0.156,0.159 -0.272,0.203l-19.674 7.49zm18.944 20.772c-1.812,0.69 -3.52,1.083 -5.123,1.177 -1.603,0.095 -3.075,-0.111 -4.409,-0.628 -1.337,-0.509 -2.519,-1.321 -3.543,-2.432 -1.026,-1.115 -1.865,-2.535 -2.521,-4.262 -0.649,-1.702 -0.988,-3.272 -1.025,-4.705 -0.039,-1.44 0.234,-2.753 0.829,-3.951 0.591,-1.19 1.51,-2.267 2.758,-3.224 1.248,-0.958 2.835,-1.807 4.763,-2.541 1.767,-0.672 3.446,-1.053 5.032,-1.142 1.585,-0.088 3.041,0.124 4.375,0.641 1.331,0.512 2.512,1.324 3.536,2.435 1.033,1.114 1.879,2.537 2.54,4.274 0.631,1.657 0.967,3.202 1.012,4.638 0.042,1.431 -0.228,2.751 -0.824,3.948 -0.586,1.202 -1.491,2.28 -2.717,3.243 -1.233,0.965 -2.789,1.808 -4.683,2.529zm-2.004 -4.59c1.148,-0.437 2.158,-0.928 3.031,-1.465 0.873,-0.537 1.565,-1.151 2.069,-1.839 0.506,-0.688 0.805,-1.462 0.9,-2.325 0.089,-0.86 -0.069,-1.831 -0.48,-2.91 -0.415,-1.091 -0.971,-1.924 -1.657,-2.495 -0.689,-0.577 -1.47,-0.961 -2.328,-1.15 -0.859,-0.189 -1.782,-0.2 -2.77,-0.037 -0.994,0.168 -1.999,0.445 -3.027,0.836 -1.194,0.455 -2.234,0.956 -3.118,1.497 -0.884,0.542 -1.581,1.158 -2.1,1.844 -0.513,0.685 -0.81,1.451 -0.893,2.309 -0.077,0.856 0.089,1.83 0.505,2.921 0.415,1.092 0.964,1.927 1.651,2.498 0.683,0.579 1.464,0.963 2.334,1.147 0.87,0.185 1.804,0.193 2.805,0.024 0.999,-0.169 2.028,-0.455 3.078,-0.855zm15.081 -10.976c0.228,0.079 0.416,0.172 0.573,0.271 0.153,0.107 0.298,0.244 0.43,0.418 0.126,0.176 0.259,0.403 0.384,0.68 0.125,0.276 0.262,0.621 0.421,1.036 0.198,0.52 0.317,0.937 0.358,1.252 0.046,0.313 0.034,0.542 -0.034,0.693 -0.07,0.146 -0.182,0.215 -0.335,0.214 -0.154,-0.007 -0.34,-0.062 -0.545,-0.163l-4.813 -2.471c-0.145,-0.07 -0.276,-0.152 -0.397,-0.245 -0.119,-0.087 -0.232,-0.209 -0.347,-0.357 -0.118,-0.153 -0.23,-0.342 -0.343,-0.57 -0.113,-0.228 -0.237,-0.517 -0.369,-0.864 -0.147,-0.387 -0.246,-0.7 -0.299,-0.943 -0.054,-0.245 -0.064,-0.426 -0.025,-0.553 0.031,-0.124 0.11,-0.194 0.234,-0.214 0.125,-0.022 0.288,0.009 0.494,0.082l4.613 1.734zm-1.897 32.778c-1.236,0.47 -2.394,0.693 -3.488,0.666 -1.097,-0.018 -2.107,-0.275 -3.034,-0.768 -0.932,-0.484 -1.766,-1.198 -2.513,-2.136 -0.747,-0.939 -1.394,-2.133 -1.945,-3.582l-0.697 -1.83 -6.979 2.657c-0.116,0.043 -0.227,0.047 -0.348,0.006 -0.115,-0.042 -0.236,-0.135 -0.358,-0.28 -0.121,-0.145 -0.247,-0.355 -0.389,-0.625 -0.141,-0.264 -0.296,-0.621 -0.461,-1.054 -0.163,-0.427 -0.282,-0.792 -0.357,-1.093 -0.075,-0.302 -0.115,-0.545 -0.127,-0.732 -0.006,-0.189 0.023,-0.339 0.086,-0.435 0.065,-0.105 0.156,-0.18 0.266,-0.221l19.691 -7.496c0.532,-0.202 0.983,-0.215 1.353,-0.039 0.372,0.176 0.643,0.489 0.814,0.939l1.965 5.161c0.197,0.52 0.369,1.023 0.507,1.506 0.137,0.483 0.264,1.076 0.388,1.782 0.115,0.703 0.131,1.457 0.034,2.261 -0.091,0.801 -0.316,1.548 -0.673,2.225 -0.357,0.678 -0.842,1.279 -1.469,1.802 -0.621,0.521 -1.378,0.948 -2.266,1.286zm-2.091 -4.519c0.768,-0.291 1.351,-0.672 1.744,-1.132 0.393,-0.461 0.635,-0.936 0.72,-1.424 0.085,-0.489 0.078,-0.961 -0.025,-1.419 -0.103,-0.463 -0.245,-0.924 -0.423,-1.392l-0.725 -1.904 -7.448 2.834 0.765 2.009c0.273,0.716 0.597,1.273 0.972,1.685 0.373,0.408 0.796,0.702 1.259,0.876 0.457,0.177 0.96,0.249 1.501,0.229 0.538,-0.027 1.094,-0.146 1.66,-0.362zm6.846 29.166c-1.812,0.69 -3.52,1.082 -5.123,1.177 -1.604,0.095 -3.076,-0.111 -4.409,-0.628 -1.338,-0.509 -2.52,-1.322 -3.544,-2.432 -1.027,-1.116 -1.864,-2.535 -2.521,-4.262 -0.648,-1.702 -0.988,-3.272 -1.025,-4.705 -0.038,-1.44 0.235,-2.753 0.829,-3.951 0.591,-1.19 1.51,-2.267 2.758,-3.224 1.249,-0.958 2.835,-1.807 4.764,-2.541 1.766,-0.672 3.445,-1.054 5.031,-1.142 1.586,-0.088 3.041,0.125 4.375,0.642 1.332,0.511 2.513,1.323 3.537,2.434 1.032,1.113 1.878,2.537 2.54,4.274 0.63,1.657 0.967,3.201 1.012,4.638 0.042,1.431 -0.229,2.751 -0.824,3.948 -0.587,1.202 -1.491,2.28 -2.719,3.243 -1.231,0.965 -2.787,1.808 -4.681,2.529zm-2.005 -4.59c1.149,-0.437 2.158,-0.928 3.031,-1.465 0.874,-0.537 1.565,-1.15 2.07,-1.838 0.504,-0.688 0.805,-1.463 0.899,-2.325 0.089,-0.861 -0.068,-1.832 -0.48,-2.911 -0.415,-1.091 -0.97,-1.924 -1.657,-2.495 -0.689,-0.578 -1.469,-0.961 -2.328,-1.15 -0.858,-0.189 -1.781,-0.201 -2.769,-0.037 -0.994,0.168 -1.999,0.444 -3.027,0.836 -1.195,0.455 -2.234,0.955 -3.118,1.497 -0.884,0.542 -1.582,1.158 -2.1,1.844 -0.514,0.684 -0.81,1.451 -0.893,2.309 -0.077,0.856 0.089,1.83 0.504,2.922 0.416,1.09 0.965,1.926 1.652,2.497 0.683,0.579 1.463,0.963 2.333,1.147 0.87,0.185 1.805,0.192 2.805,0.024 0.999,-0.17 2.028,-0.455 3.078,-0.855zm-1.331 23.917c-0.335,0.128 -0.628,0.226 -0.87,0.285 -0.242,0.059 -0.45,0.086 -0.62,0.091 -0.178,0.001 -0.314,-0.026 -0.411,-0.089 -0.102,-0.06 -0.174,-0.145 -0.215,-0.255l-3.818 -10.028c-0.14,-0.368 -0.149,-0.722 -0.026,-1.059 0.122,-0.338 0.432,-0.602 0.928,-0.791l19.882 -7.568c0.11,-0.042 0.227,-0.047 0.348,-0.007 0.115,0.042 0.236,0.135 0.358,0.281 0.121,0.145 0.249,0.36 0.394,0.636 0.144,0.276 0.298,0.627 0.46,1.054 0.168,0.439 0.289,0.809 0.362,1.105 0.071,0.29 0.118,0.537 0.124,0.726 0.006,0.19 -0.023,0.339 -0.081,0.448 -0.063,0.109 -0.155,0.184 -0.264,0.225l-17.613 6.705 2.617 6.875c0.042,0.11 0.053,0.225 0.02,0.33 -0.03,0.111 -0.102,0.218 -0.224,0.33 -0.117,0.111 -0.287,0.221 -0.512,0.34 -0.22,0.118 -0.499,0.237 -0.839,0.366zm1.448 7.572c-0.11,0.042 -0.227,0.047 -0.348,0.007 -0.116,-0.042 -0.237,-0.135 -0.358,-0.281 -0.116,-0.148 -0.25,-0.36 -0.39,-0.625 -0.142,-0.269 -0.298,-0.626 -0.465,-1.065 -0.162,-0.427 -0.281,-0.791 -0.357,-1.093 -0.075,-0.303 -0.117,-0.551 -0.128,-0.738 -0.007,-0.189 0.023,-0.339 0.08,-0.447 0.065,-0.11 0.155,-0.184 0.265,-0.226l20.678 -7.872c0.109,-0.042 0.227,-0.047 0.348,-0.007 0.115,0.042 0.236,0.135 0.362,0.292 0.124,0.151 0.25,0.36 0.392,0.631 0.143,0.27 0.296,0.621 0.458,1.047 0.167,0.44 0.288,0.81 0.362,1.106 0.071,0.29 0.118,0.537 0.124,0.726 0.006,0.19 -0.023,0.339 -0.081,0.447 -0.064,0.11 -0.155,0.184 -0.264,0.226l-20.678 7.872zm12.723 15.487c-1.155,0.44 -2.241,0.609 -3.275,0.513 -1.03,-0.103 -1.972,-0.406 -2.834,-0.917 -0.859,-0.519 -1.623,-1.206 -2.29,-2.076 -0.669,-0.869 -1.213,-1.865 -1.639,-2.985 -0.288,-0.756 -0.49,-1.479 -0.612,-2.179 -0.119,-0.695 -0.186,-1.324 -0.197,-1.889 -0.016,-0.562 0.011,-1.048 0.08,-1.457 0.068,-0.41 0.152,-0.712 0.239,-0.917 0.095,-0.202 0.269,-0.387 0.522,-0.556 0.253,-0.169 0.634,-0.348 1.154,-0.546 0.352,-0.134 0.645,-0.232 0.891,-0.299 0.245,-0.067 0.449,-0.105 0.619,-0.11 0.164,-0.003 0.294,0.027 0.389,0.084 0.096,0.062 0.163,0.149 0.206,0.265 0.06,0.156 0.053,0.416 -0.028,0.777 -0.074,0.359 -0.142,0.808 -0.195,1.344 -0.054,0.536 -0.055,1.157 -0.001,1.856 0.047,0.697 0.232,1.46 0.546,2.285 0.206,0.542 0.455,1.003 0.744,1.382 0.298,0.382 0.615,0.678 0.966,0.888 0.351,0.21 0.726,0.326 1.133,0.355 0.406,0.024 0.824,-0.042 1.251,-0.205 0.496,-0.189 0.873,-0.484 1.122,-0.889 0.254,-0.408 0.432,-0.878 0.542,-1.423 0.112,-0.538 0.183,-1.134 0.215,-1.781 0.033,-0.64 0.07,-1.308 0.117,-2.001 0.047,-0.691 0.136,-1.38 0.273,-2.06 0.13,-0.684 0.351,-1.336 0.665,-1.951 0.313,-0.622 0.744,-1.189 1.299,-1.711 0.548,-0.519 1.284,-0.951 2.195,-1.299 1.045,-0.398 2.044,-0.553 2.988,-0.469 0.938,0.085 1.796,0.36 2.572,0.818 0.778,0.464 1.464,1.089 2.065,1.885 0.601,0.796 1.09,1.7 1.473,2.704 0.195,0.513 0.352,1.049 0.469,1.599 0.123,0.548 0.198,1.074 0.237,1.576 0.032,0.502 0.034,0.958 0.001,1.374 -0.042,0.413 -0.092,0.696 -0.164,0.856 -0.068,0.151 -0.137,0.263 -0.197,0.333 -0.065,0.071 -0.156,0.145 -0.278,0.224 -0.116,0.077 -0.271,0.156 -0.469,0.244 -0.191,0.087 -0.432,0.185 -0.726,0.297 -0.323,0.123 -0.603,0.222 -0.834,0.291 -0.232,0.068 -0.428,0.11 -0.593,0.127 -0.161,0.014 -0.292,-0.002 -0.381,-0.047 -0.098,-0.049 -0.17,-0.134 -0.218,-0.26 -0.047,-0.122 -0.042,-0.349 0.012,-0.68 0.052,-0.33 0.098,-0.731 0.139,-1.196 0.033,-0.468 0.027,-0.988 -0.021,-1.565 -0.042,-0.579 -0.182,-1.173 -0.419,-1.797 -0.185,-0.484 -0.403,-0.884 -0.663,-1.202 -0.251,-0.314 -0.533,-0.55 -0.833,-0.714 -0.3,-0.162 -0.619,-0.253 -0.957,-0.257 -0.341,-0.009 -0.674,0.052 -0.998,0.176 -0.485,0.184 -0.856,0.477 -1.107,0.877 -0.256,0.402 -0.437,0.881 -0.545,1.431 -0.103,0.547 -0.169,1.154 -0.196,1.812 -0.03,0.653 -0.07,1.329 -0.111,2.019 -0.047,0.692 -0.133,1.386 -0.267,2.077 -0.131,0.697 -0.349,1.356 -0.659,1.983 -0.312,0.621 -0.736,1.192 -1.285,1.712 -0.544,0.517 -1.255,0.94 -2.132,1.274z"/>
 </g>
</svg>
