<?xml version="1.0" encoding="UTF-8"?>
<!DOCTYPE svg PUBLIC "-//W3C//DTD SVG 1.1//EN" "http://www.w3.org/Graphics/SVG/1.1/DTD/svg11.dtd">
<!-- Creator: CorelDRAW 2021 (64-Bit) -->
<svg xmlns="http://www.w3.org/2000/svg" xml:space="preserve" width="300px" height="400px" version="1.1" style="shape-rendering:geometricPrecision; text-rendering:geometricPrecision; image-rendering:optimizeQuality; fill-rule:evenodd; clip-rule:evenodd"
viewBox="0 0 300 399.999"
 xmlns:xlink="http://www.w3.org/1999/xlink"
 xmlns:xodm="http://www.corel.com/coreldraw/odm/2003">
 <defs>
  <style type="text/css">
   <![CDATA[
    .fil0 {fill:#E94D59}
   ]]>
  </style>
 </defs>
 <g id="Layer_x0020_1">
  <metadata id="CorelCorpID_0Corel-Layer"/>
  <g id="_2043965321280">
   <path class="fil0" d="M52 167.87l25.271 -144.87 116.656 89.54 -30.717 11.975 82.299 211.104 -80.494 31.381 -82.299 -211.104 -30.716 11.974zm75.023 -14.495l0.425 5.755c-3.201,0.338 -5.861,-0.14 -7.984,-1.426 -2.116,-1.289 -3.726,-3.34 -4.826,-6.16 -1.361,-3.493 -1.287,-6.828 0.221,-10.009 1.51,-3.176 4.333,-5.573 8.474,-7.188 4.374,-1.704 8.217,-1.899 11.52,-0.586 3.303,1.313 5.673,3.814 7.109,7.497 1.254,3.218 1.318,6.203 0.198,8.951 -0.658,1.638 -1.925,3.16 -3.802,4.583l-3.294 -4.763c1.236,-0.841 2.06,-1.91 2.465,-3.202 0.403,-1.299 0.327,-2.65 -0.221,-4.058 -0.761,-1.951 -2.076,-3.264 -3.95,-3.929 -1.869,-0.673 -4.368,-0.397 -7.501,0.825 -3.316,1.292 -5.45,2.815 -6.392,4.556 -0.945,1.75 -1.043,3.578 -0.296,5.493 0.551,1.413 1.472,2.457 2.766,3.121 1.296,0.666 2.989,0.851 5.088,0.54zm20.372 3.229l2.075 5.322 -14.242 5.552c-2.264,0.883 -3.7,1.521 -4.317,1.909 -0.988,0.646 -1.649,1.517 -1.969,2.614 -0.323,1.106 -0.196,2.389 0.376,3.857 0.579,1.486 1.325,2.493 2.238,3.01 0.913,0.518 1.843,0.677 2.802,0.48 0.958,-0.198 2.476,-0.698 4.556,-1.509l14.548 -5.672 2.075 5.323 -13.82 5.388c-3.157,1.23 -5.444,1.96 -6.86,2.181 -1.415,0.22 -2.721,0.123 -3.921,-0.297 -1.198,-0.414 -2.308,-1.165 -3.341,-2.242 -1.036,-1.084 -1.958,-2.655 -2.767,-4.729 -0.975,-2.502 -1.426,-4.511 -1.349,-6.028 0.078,-1.518 0.432,-2.832 1.069,-3.947 0.636,-1.116 1.412,-1.982 2.341,-2.619 1.369,-0.935 3.529,-1.974 6.472,-3.122l14.034 -5.471zm-15.948 36.755l26.282 -10.247 4.358 11.178c1.094,2.808 1.652,4.944 1.677,6.4 0.027,1.462 -0.415,2.805 -1.322,4.039 -0.913,1.237 -2.139,2.159 -3.693,2.765 -1.976,0.77 -3.828,0.83 -5.563,0.174 -1.735,-0.655 -3.215,-2.065 -4.449,-4.235 -0.22,1.405 -0.588,2.633 -1.1,3.685 -0.511,1.06 -1.545,2.618 -3.097,4.675l-3.877 5.204 -2.473 -6.344 4.254 -6.042c1.506,-2.158 2.426,-3.595 2.76,-4.31 0.33,-0.707 0.49,-1.383 0.467,-2.022 -0.027,-0.646 -0.277,-1.577 -0.754,-2.8l-0.42 -1.077 -10.975 4.279 -2.075 -5.322zm17.235 -0.588l1.531 3.928c0.992,2.544 1.72,4.086 2.182,4.639 0.46,0.547 1.029,0.903 1.693,1.052 0.667,0.156 1.397,0.076 2.186,-0.232 0.887,-0.346 1.504,-0.861 1.871,-1.547 0.36,-0.683 0.444,-1.483 0.25,-2.394 -0.108,-0.459 -0.58,-1.761 -1.418,-3.909l-1.615 -4.142 -6.68 2.605zm-6.972 26.912l26.282 -10.246 2.075 5.323 -26.282 10.246 -2.075 -5.323zm6.351 16.292l21.84 -8.515 -3.033 -7.781 4.441 -1.732 8.129 20.85 -4.442 1.731 -3.02 -7.745 -21.84 8.514 -2.075 -5.322zm6.366 16.328l26.282 -10.246 2.075 5.322 -26.282 10.246 -2.075 -5.322zm30.329 0.136l4.098 10.51c0.813,2.086 1.33,3.668 1.557,4.756 0.224,1.097 0.218,2.149 -0.012,3.169 -0.235,1.022 -0.701,1.979 -1.403,2.873 -0.701,0.893 -1.624,1.563 -2.756,2.004 -1.224,0.478 -2.484,0.588 -3.764,0.326 -1.285,-0.26 -2.4,-0.862 -3.355,-1.793 0.151,1.781 -0.167,3.314 -0.956,4.616 -0.793,1.295 -1.947,2.238 -3.47,2.832 -1.199,0.468 -2.469,0.645 -3.818,0.53 -1.348,-0.115 -2.55,-0.521 -3.606,-1.223 -1.047,-0.698 -1.926,-1.723 -2.636,-3.074 -0.435,-0.845 -1.329,-2.956 -2.672,-6.33l-3.489 -8.95 26.282 -10.246zm-2.294 7.025l-6.056 2.361 1.355 3.475c0.804,2.062 1.335,3.334 1.592,3.812 0.457,0.865 1.048,1.459 1.771,1.777 0.722,0.317 1.502,0.309 2.346,-0.02 0.813,-0.318 1.38,-0.799 1.713,-1.443 0.334,-0.645 0.38,-1.431 0.141,-2.352 -0.144,-0.551 -0.703,-2.074 -1.674,-4.563l-1.188 -3.047zm-10.424 4.064l-7.048 2.747 1.918 4.919c0.744,1.909 1.274,3.105 1.578,3.578 0.454,0.732 1.054,1.239 1.804,1.517 0.756,0.276 1.593,0.239 2.53,-0.126 0.795,-0.31 1.388,-0.76 1.788,-1.36 0.403,-0.594 0.589,-1.308 0.559,-2.128 -0.031,-0.819 -0.515,-2.442 -1.457,-4.859l-1.672 -4.288zm6 49.341l-2.234 -5.732 5.098 -4.603 -4.11 -10.541 -6.834 0.149 -2.195 -5.628 30.261 -0.042 2.192 5.622 -22.178 20.775zm6.632 -13.792l8.304 -7.444 -11.111 0.244 2.807 7.2z"/>
  </g>
 </g>
</svg>
