<?xml version="1.0" encoding="UTF-8"?>
<!DOCTYPE svg PUBLIC "-//W3C//DTD SVG 1.1//EN" "http://www.w3.org/Graphics/SVG/1.1/DTD/svg11.dtd">
<!-- Creator: CorelDRAW 2021 (64-Bit) -->
<svg xmlns="http://www.w3.org/2000/svg" xml:space="preserve" width="400px" height="300px" version="1.1" style="shape-rendering:geometricPrecision; text-rendering:geometricPrecision; image-rendering:optimizeQuality; fill-rule:evenodd; clip-rule:evenodd"
viewBox="0 0 400 300"
 xmlns:xlink="http://www.w3.org/1999/xlink"
 xmlns:xodm="http://www.corel.com/coreldraw/odm/2003">
 <defs>
  <style type="text/css">
   <![CDATA[
    .fil0 {fill:#1D3557}
   ]]>
  </style>
 </defs>
 <g id="Layer_x0020_1">
  <metadata id="CorelCorpID_0Corel-Layer"/>
  <path class="fil0" d="M366.663 274l-33.378 -94.168 -289.285 0 0.044 -119.127 308.305 0 0 107.651 14.314 105.644zm-271.042 -139.223l-6.347 0 -2.512 -7.175 -11.67 0 -2.418 7.175 -6.231 0 11.297 -31.516 6.225 0 11.656 31.516zm-10.769 -12.501l-4.044 -11.665 -3.928 11.665 7.972 0zm13.905 12.501l0 -31.516 21.538 0 0 5.326 -15.645 0 0 6.999 14.548 0 0 5.325 -14.548 0 0 8.54 16.214 0 0 5.326 -22.107 0zm27.106 0l0 -31.516 12.375 0c3.108,0 5.37,0.287 6.779,0.851 1.416,0.565 2.54,1.57 3.386,3.015 0.847,1.453 1.274,3.104 1.274,4.967 0,2.369 -0.637,4.32 -1.917,5.861 -1.28,1.541 -3.19,2.509 -5.737,2.913 1.266,0.8 2.309,1.68 3.13,2.64 0.825,0.961 1.936,2.671 3.332,5.121l3.549 6.148 -7.024 0 -4.213 -6.881c-1.51,-2.444 -2.547,-3.984 -3.109,-4.622 -0.555,-0.631 -1.144,-1.072 -1.767,-1.306 -0.63,-0.235 -1.619,-0.352 -2.974,-0.352l-1.192 0 0 13.161 -5.892 0zm5.892 -18.179l4.348 0c2.819,0 4.572,-0.132 5.277,-0.389 0.698,-0.257 1.253,-0.704 1.646,-1.335 0.399,-0.631 0.596,-1.423 0.596,-2.369 0,-1.064 -0.264,-1.915 -0.786,-2.576 -0.521,-0.653 -1.26,-1.063 -2.208,-1.232 -0.481,-0.073 -1.91,-0.11 -4.287,-0.11l-4.586 0 0 8.011zm22.236 2.612c0,-3.213 0.447,-5.913 1.335,-8.099 0.657,-1.607 1.564,-3.052 2.709,-4.329 1.145,-1.276 2.398,-2.222 3.759,-2.846 1.815,-0.829 3.908,-1.247 6.278,-1.247 4.294,0 7.722,1.445 10.302,4.328 2.574,2.891 3.861,6.904 3.861,12.046 0,5.098 -1.28,9.09 -3.834,11.965 -2.553,2.883 -5.974,4.321 -10.247,4.321 -4.328,0 -7.776,-1.43 -10.329,-4.299 -2.553,-2.861 -3.834,-6.808 -3.834,-11.84zm6.056 -0.213c0,3.572 0.765,6.28 2.288,8.128 1.525,1.842 3.462,2.765 5.805,2.765 2.351,0 4.274,-0.916 5.784,-2.742 1.504,-1.835 2.256,-4.579 2.256,-8.239 0,-3.617 -0.732,-6.316 -2.202,-8.092 -1.463,-1.782 -3.407,-2.67 -5.838,-2.67 -2.425,0 -4.382,0.902 -5.865,2.7 -1.483,1.804 -2.228,4.518 -2.228,8.15zm26.773 15.78l0 -31.516 9.421 0c3.57,0 5.893,0.154 6.977,0.47 1.666,0.477 3.061,1.504 4.185,3.088 1.125,1.584 1.686,3.631 1.686,6.141 0,1.936 -0.325,3.558 -0.968,4.878 -0.65,1.32 -1.469,2.355 -2.465,3.11 -0.996,0.748 -2.012,1.248 -3.041,1.489 -1.402,0.301 -3.428,0.455 -6.082,0.455l-3.82 0 0 11.885 -5.893 0zm5.893 -26.19l0 8.98 3.203 0c2.31,0 3.847,-0.169 4.626,-0.499 0.779,-0.331 1.389,-0.844 1.829,-1.555 0.441,-0.705 0.664,-1.519 0.664,-2.458 0,-1.152 -0.311,-2.099 -0.928,-2.846 -0.624,-0.749 -1.402,-1.219 -2.357,-1.409 -0.698,-0.14 -2.1,-0.213 -4.213,-0.213l-2.824 0zm19.993 10.623c0,-3.213 0.448,-5.913 1.335,-8.099 0.657,-1.607 1.564,-3.052 2.71,-4.329 1.144,-1.276 2.397,-2.222 3.758,-2.846 1.816,-0.829 3.909,-1.247 6.279,-1.247 4.294,0 7.721,1.445 10.302,4.328 2.573,2.891 3.86,6.904 3.86,12.046 0,5.098 -1.28,9.09 -3.833,11.965 -2.554,2.883 -5.974,4.321 -10.248,4.321 -4.328,0 -7.775,-1.43 -10.329,-4.299 -2.553,-2.861 -3.834,-6.808 -3.834,-11.84zm6.056 -0.213c0,3.572 0.765,6.28 2.289,8.128 1.524,1.842 3.461,2.765 5.804,2.765 2.351,0 4.274,-0.916 5.784,-2.742 1.505,-1.835 2.256,-4.579 2.256,-8.239 0,-3.617 -0.731,-6.316 -2.201,-8.092 -1.463,-1.782 -3.407,-2.67 -5.839,-2.67 -2.424,0 -4.382,0.902 -5.865,2.7 -1.483,1.804 -2.228,4.518 -2.228,8.15zm26.773 15.78l0 -31.516 12.375 0c3.109,0 5.371,0.287 6.779,0.851 1.417,0.565 2.541,1.57 3.387,3.015 0.847,1.453 1.274,3.104 1.274,4.967 0,2.369 -0.637,4.32 -1.917,5.861 -1.281,1.541 -3.191,2.509 -5.737,2.913 1.266,0.8 2.309,1.68 3.129,2.64 0.826,0.961 1.937,2.671 3.332,5.121l3.55 6.148 -7.024 0 -4.213 -6.881c-1.51,-2.444 -2.547,-3.984 -3.109,-4.622 -0.555,-0.631 -1.145,-1.072 -1.768,-1.306 -0.63,-0.235 -1.619,-0.352 -2.973,-0.352l-1.192 0 0 13.161 -5.893 0zm5.893 -18.179l4.348 0c2.818,0 4.572,-0.132 5.277,-0.389 0.697,-0.257 1.253,-0.704 1.646,-1.335 0.399,-0.631 0.596,-1.423 0.596,-2.369 0,-1.064 -0.264,-1.915 -0.786,-2.576 -0.522,-0.653 -1.26,-1.063 -2.208,-1.232 -0.482,-0.073 -1.91,-0.11 -4.288,-0.11l-4.585 0 0 8.011zm29.998 18.179l0 -26.19 -8.615 0 0 -5.326 23.082 0 0 5.326 -8.574 0 0 26.19 -5.893 0zm16.329 -15.567c0,-3.213 0.447,-5.913 1.335,-8.099 0.657,-1.607 1.564,-3.052 2.709,-4.329 1.145,-1.276 2.398,-2.222 3.759,-2.846 1.815,-0.829 3.909,-1.247 6.279,-1.247 4.294,0 7.721,1.445 10.302,4.328 2.573,2.891 3.86,6.904 3.86,12.046 0,5.098 -1.28,9.09 -3.833,11.965 -2.554,2.883 -5.974,4.321 -10.248,4.321 -4.328,0 -7.775,-1.43 -10.329,-4.299 -2.553,-2.861 -3.834,-6.808 -3.834,-11.84zm6.056 -0.213c0,3.572 0.765,6.28 2.289,8.128 1.524,1.842 3.461,2.765 5.804,2.765 2.351,0 4.274,-0.916 5.784,-2.742 1.504,-1.835 2.256,-4.579 2.256,-8.239 0,-3.617 -0.732,-6.316 -2.201,-8.092 -1.463,-1.782 -3.407,-2.67 -5.839,-2.67 -2.424,0 -4.381,0.902 -5.865,2.7 -1.483,1.804 -2.228,4.518 -2.228,8.15z"/>
 </g>
</svg>
