<?xml version="1.0" encoding="UTF-8"?>
<!DOCTYPE svg PUBLIC "-//W3C//DTD SVG 1.1//EN" "http://www.w3.org/Graphics/SVG/1.1/DTD/svg11.dtd">
<!-- Creator: CorelDRAW 2021 (64-Bit) -->
<svg xmlns="http://www.w3.org/2000/svg" xml:space="preserve" width="400px" height="300px" version="1.1" style="shape-rendering:geometricPrecision; text-rendering:geometricPrecision; image-rendering:optimizeQuality; fill-rule:evenodd; clip-rule:evenodd"
viewBox="0 0 400 300"
 xmlns:xlink="http://www.w3.org/1999/xlink"
 xmlns:xodm="http://www.corel.com/coreldraw/odm/2003">
 <defs>
  <style type="text/css">
   <![CDATA[
    .fil0 {fill:#E94D59}
   ]]>
  </style>
 </defs>
 <g id="Layer_x0020_1">
  <metadata id="CorelCorpID_0Corel-Layer"/>
  <path class="fil0" d="M361.449 238l-326.449 0 0 -174.353 326.449 0 0 174.353zm-297.147 -117.554l23.501 0c4.664,0 8.124,0.191 10.409,0.575 2.298,0.395 4.336,1.202 6.142,2.42 1.806,1.231 3.31,2.86 4.514,4.897 1.204,2.038 1.806,4.336 1.806,6.866 0,2.737 -0.739,5.267 -2.217,7.552 -1.477,2.298 -3.487,4.007 -6.017,5.158 3.57,1.051 6.304,2.83 8.234,5.347 1.914,2.517 2.872,5.473 2.872,8.878 0,2.681 -0.616,5.28 -1.86,7.81 -1.245,2.53 -2.942,4.556 -5.103,6.073 -2.148,1.505 -4.801,2.435 -7.96,2.791 -1.971,0.206 -6.744,0.343 -14.309,0.397l-20.012 0 0 -58.764zm11.901 9.766l0 13.543 7.769 0c4.61,0 7.482,-0.069 8.605,-0.206 2.024,-0.232 3.624,-0.931 4.788,-2.092 1.161,-1.164 1.736,-2.682 1.736,-4.57 0,-1.819 -0.505,-3.282 -1.505,-4.417 -0.998,-1.137 -2.489,-1.82 -4.459,-2.053 -1.176,-0.137 -4.555,-0.205 -10.122,-0.205l-6.812 0zm0 23.309l0 15.759 10.998 0c4.268,0 6.989,-0.124 8.139,-0.357 1.764,-0.328 3.2,-1.108 4.308,-2.353 1.109,-1.258 1.669,-2.913 1.669,-5.006 0,-1.779 -0.425,-3.268 -1.286,-4.499 -0.848,-1.232 -2.093,-2.135 -3.707,-2.696 -1.615,-0.56 -5.129,-0.848 -10.532,-0.848l-9.589 0zm47.37 25.689l0 -58.764 24.99 0c6.279,0 10.849,0.533 13.693,1.586 2.86,1.054 5.129,2.927 6.839,5.622 1.71,2.709 2.572,5.787 2.572,9.26 0,4.419 -1.285,8.057 -3.871,10.93 -2.585,2.874 -6.443,4.678 -11.586,5.43 2.557,1.492 4.664,3.132 6.32,4.925 1.669,1.793 3.912,4.979 6.729,9.548l7.169 11.463 -14.186 0 -8.508 -12.831c-3.05,-4.554 -5.142,-7.427 -6.279,-8.618 -1.121,-1.175 -2.312,-1.997 -3.57,-2.435 -1.272,-0.437 -3.269,-0.656 -6.005,-0.656l-2.407 0 0 24.54 -11.9 0zm11.9 -33.896l8.782 0c5.69,0 9.233,-0.246 10.656,-0.725 1.409,-0.479 2.53,-1.313 3.324,-2.49 0.806,-1.176 1.203,-2.653 1.203,-4.419 0,-1.983 -0.534,-3.57 -1.586,-4.801 -1.053,-1.217 -2.545,-1.984 -4.459,-2.298 -0.972,-0.137 -3.858,-0.205 -8.659,-0.205l-9.261 0 0 14.938zm45.974 18.221l0 -11.245 22.16 0 0 11.245 -22.16 0zm54.99 15.675l-11.245 0 0 -42.541c-4.104,3.857 -8.946,6.715 -14.527,8.563l0 -10.259c2.941,-0.958 6.129,-2.777 9.562,-5.473 3.447,-2.68 5.8,-5.812 7.086,-9.382l9.124 0 0 59.092zm35.92 -59.092c5.691,0 10.135,2.038 13.35,6.113 3.817,4.815 5.732,12.818 5.732,23.979 0,11.15 -1.928,19.164 -5.772,24.035 -3.188,4.022 -7.619,6.032 -13.31,6.032 -5.717,0 -10.328,-2.202 -13.83,-6.607 -3.501,-4.404 -5.253,-12.27 -5.253,-23.568 0,-11.094 1.93,-19.083 5.774,-23.952 3.186,-4.022 7.619,-6.032 13.309,-6.032zm0 9.355c-1.341,0 -2.545,0.438 -3.583,1.314 -1.054,0.861 -1.876,2.42 -2.449,4.678 -0.766,2.914 -1.15,7.838 -1.15,14.745 0,6.922 0.343,11.669 1.027,14.255 0.683,2.584 1.545,4.307 2.585,5.17 1.039,0.862 2.229,1.285 3.57,1.285 1.34,0 2.544,-0.436 3.598,-1.312 1.039,-0.863 1.86,-2.422 2.435,-4.678 0.766,-2.887 1.148,-7.798 1.148,-14.72 0,-6.907 -0.342,-11.653 -1.025,-14.239 -0.684,-2.585 -1.545,-4.323 -2.586,-5.184 -1.04,-0.876 -2.23,-1.314 -3.57,-1.314zm55.372 49.737l-11.244 0 0 -42.541c-4.104,3.857 -8.946,6.715 -14.527,8.563l0 -10.259c2.941,-0.958 6.128,-2.777 9.562,-5.473 3.446,-2.68 5.799,-5.812 7.086,-9.382l9.123 0 0 59.092z"/>
 </g>
</svg>
