<?xml version="1.0" encoding="UTF-8"?>
<!DOCTYPE svg PUBLIC "-//W3C//DTD SVG 1.1//EN" "http://www.w3.org/Graphics/SVG/1.1/DTD/svg11.dtd">
<!-- Creator: CorelDRAW 2021 (64 Bit) -->
<svg xmlns="http://www.w3.org/2000/svg" xml:space="preserve" width="200px" height="200px" version="1.1" style="shape-rendering:geometricPrecision; text-rendering:geometricPrecision; image-rendering:optimizeQuality; fill-rule:evenodd; clip-rule:evenodd"
viewBox="0 0 200 200"
 xmlns:xlink="http://www.w3.org/1999/xlink"
 xmlns:xodm="http://www.corel.com/coreldraw/odm/2003">
 <defs>
  <style type="text/css">
   <![CDATA[
    .fil0 {fill:#1D3557}
   ]]>
  </style>
 </defs>
 <g id="Camada_x0020_1">
  <metadata id="CorelCorpID_0Corel-Layer"/>
  <path class="fil0" d="M94.73 59.71l-63.87 0c-0.21,0.58 -0.02,0.19 -0.47,0.69l-0.82 0.72c-0.04,0.02 -0.09,0.05 -0.12,0.07l-0.91 0.63c-0.04,0.05 -0.32,0.33 -0.38,0.4 -0.22,0.23 -0.39,0.39 -0.67,0.67l-1.5 1.19c-1.06,0.66 -2.15,2.17 -2.7,2.49 -1.3,0.76 -2.17,2.09 -3.46,2.9 -0.03,0.02 -0.08,0.05 -0.12,0.07l-2.12 2.11c-0.88,0.75 -0.95,0.55 -2.22,1.82l-1.81 1.46c-0.71,0.49 -1.01,1.25 -3.08,2.69 -0.05,0.03 -0.17,0.14 -0.21,0.17l-0.67 0.68c-0.45,0.46 -0.81,1.02 -1.44,1.25l0 0.39c0.6,0.22 3.01,2.43 3.55,2.98l1.31 1c0.54,0.34 1.96,1.99 3.08,2.69 0.32,0.2 0.5,0.41 0.72,0.64 0.24,0.24 0.38,0.38 0.67,0.67l4.39 3.88c0.04,0.02 0.09,0.04 0.13,0.06 0.04,0.03 0.09,0.05 0.12,0.07 0.04,0.02 0.09,0.05 0.13,0.07 0.54,0.34 1.96,1.99 3.08,2.69l1.38 1.31c0.17,0.17 0.17,0.17 0.29,0.29l1.41 1.1c0.72,0.45 1.62,1.39 2.15,2.08 0.23,0.29 0.14,0.07 0.29,0.48l63.87 0 0 81.57c-0.64,0 -0.51,-0.04 -1.02,0.13 -0.4,0.13 0.22,0.16 -0.9,0.26 -0.75,0.06 -1.74,-0.06 -2.52,-0.02 -1.68,0.07 -0.23,0.35 -1.9,0.41 -1.61,0.05 -1.18,0.13 -2.17,0.33 -0.4,0.08 -0.67,0.01 -1.07,0.09 -1.13,0.22 0.28,0.06 -0.86,0.29l-1.5 0.23c-0.04,0.01 -0.09,0.04 -0.14,0.05l-3.18 1.43c-0.56,0.28 0.25,-0.02 -0.52,0.26l0 1.54c0.93,0.33 -0.15,0.05 0.77,0.38l0 0.39c-0.57,0.01 -0.34,0.05 -0.63,0.14l-2.34 0.54c-0.61,0.17 -0.88,0.02 -1.52,0.22 -0.06,0.01 -0.21,0.08 -0.27,0.1 -0.12,0.05 -0.24,0.09 -0.43,0.15l-3 0.85c-0.04,0.02 -0.09,0.04 -0.14,0.06l-0.65 0.31c-0.04,0.02 -0.09,0.04 -0.13,0.06 -0.04,0.02 -0.09,0.05 -0.13,0.06 -0.86,0.43 -0.95,0.95 -1.92,0.97 -0.02,1.17 0.13,0.56 -0.38,0.77l0 1.92c0.67,0.24 0.12,0.09 0.79,0.56l3.78 1.8c0.05,0.02 0.1,0.03 0.14,0.05 0.05,0.01 0.1,0.03 0.15,0.05l3.08 0.76c0.05,0.02 0.09,0.04 0.14,0.05 0.05,0.02 0.09,0.04 0.14,0.06 0.05,0.01 0.09,0.03 0.14,0.05l3.57 0.66c0.87,0.31 1.66,0.03 2.56,0.33l2.06 0.25c0.34,-0.01 0.79,-0.03 1.11,0.04 1.12,0.24 -0.27,0.07 0.85,0.31 1.23,0.26 2.84,-0.24 4.06,0.17l0.4 0.17c0.11,0.03 0.47,0.06 1,0.08l15.66 0c1.2,-0.03 2.02,-0.08 2.18,-0.13l1.86 -0.26c0.75,0.01 2.15,0.08 2.75,-0.13l0.41 -0.17c1.03,-0.29 2.27,0.02 3.32,-0.33 0.82,-0.27 1.36,-0.01 2.14,-0.17 1.13,-0.24 -0.29,-0.08 0.85,-0.31 0.73,-0.15 1.28,-0.05 2.02,-0.28l1.68 -0.44c0.06,-0.01 0.1,-0.02 0.16,-0.04l6.74 -2.49c0.64,-0.42 0.3,-0.42 0.9,-0.64l0 -1.92c-0.51,-0.21 -0.36,0.4 -0.38,-0.77 -1.07,-0.02 -0.73,-0.4 -2.43,-1.23 -0.04,-0.01 -0.09,-0.04 -0.13,-0.06 -0.04,-0.02 -0.09,-0.04 -0.13,-0.06 -1.13,-0.47 -2.27,-0.61 -3.43,-1l-0.28 -0.11c-1.07,-0.38 -3.32,-0.59 -4,-0.81 -0.09,-0.03 0.12,-0.17 -0.76,-0.19l0 -0.39c0.92,-0.33 -0.16,-0.05 0.77,-0.38l0 -1.54 -1.8 -0.9c-0.04,-0.02 -0.09,-0.04 -0.13,-0.06 -0.04,-0.02 -0.08,-0.05 -0.12,-0.07 -0.04,-0.02 -0.09,-0.04 -0.13,-0.06l-0.38 -0.2c-0.04,-0.02 -0.09,-0.04 -0.13,-0.06l-3.36 -0.88c-0.5,-0.13 -0.74,-0.03 -1.22,-0.12 -0.61,-0.13 -1.03,-0.33 -1.97,-0.34 -0.62,0 -0.53,0.03 -1.02,-0.14l-0.41 -0.17c-1.2,-0.34 -2.8,0.14 -3.95,-0.27 -0.21,-0.07 0.19,-0.03 -0.43,-0.15 -0.28,-0.06 -0.45,-0.04 -0.73,-0.04l0 -121.98 63.87 0c0.17,-0.47 0.13,-0.31 0.48,-0.68l5.78 -4.99c0.28,-0.23 0.14,-0.14 0.29,-0.28l2.55 -2.26c1.06,-0.66 1.62,-1.86 2.7,-2.49 0.23,-0.13 0.13,-0.05 0.38,-0.2 1.12,-0.7 1.8,-1.95 2.96,-2.63 0.54,-0.31 1.64,-1.83 2.7,-2.49 0.28,-0.18 0.21,-0.09 0.5,-0.27 0.85,-0.54 1.34,-1.51 2.19,-2.04l0.73 -0.42c0.28,-0.22 0.44,-0.46 0.67,-0.68 0.15,-0.16 0,-0.05 0.29,-0.28 0.3,-0.24 0.08,-0.15 0.48,-0.29l0 -0.39c-0.48,-0.17 -1.68,-1.51 -2.55,-2.06l-0.63 -0.53c-0.18,-0.19 -0.2,-0.21 -0.38,-0.39 -1.48,-1.5 -2.31,-1.89 -3.84,-3.46l-1.93 -1.54c-0.29,-0.28 -0.43,-0.44 -0.67,-0.67l-2.12 -1.73c-0.26,-0.23 -0.02,-0.01 -0.29,-0.29l-5.76 -5.01c-0.75,-0.58 -1.39,-1.61 -2.23,-2.19 -0.72,-0.5 -1.45,-0.93 -2.01,-1.66 -0.23,-0.29 -0.14,-0.07 -0.29,-0.48l-63.87 0 -0.18 -13.48c-0.09,-5.83 -11.09,-5.83 -11.38,0.96l0.02 9.64c0,14.43 0,28.86 0,43.28z"/>
 </g>
</svg>
