<?xml version="1.0" encoding="UTF-8"?>
<!DOCTYPE svg PUBLIC "-//W3C//DTD SVG 1.1//EN" "http://www.w3.org/Graphics/SVG/1.1/DTD/svg11.dtd">
<!-- Creator: CorelDRAW 2021 (64 Bit) -->
<svg xmlns="http://www.w3.org/2000/svg" xml:space="preserve" width="200px" height="200px" version="1.1" style="shape-rendering:geometricPrecision; text-rendering:geometricPrecision; image-rendering:optimizeQuality; fill-rule:evenodd; clip-rule:evenodd"
viewBox="0 0 200 200"
 xmlns:xlink="http://www.w3.org/1999/xlink"
 xmlns:xodm="http://www.corel.com/coreldraw/odm/2003">
 <defs>
  <style type="text/css">
   <![CDATA[
    .fil0 {fill:#1D3557}
   ]]>
  </style>
 </defs>
 <g id="navio">
  <metadata id="CorelCorpID_0Corel-Layer"/>
  <g id="_1775095243120">
   <path class="fil0" d="M17.66 107.41c-0.02,1.05 -0.47,0.84 -0.87,1.69 -0.44,0.91 -0.22,3.7 0,4.31l1.28 3.84c0.01,0.05 0.03,0.1 0.04,0.14l1.3 3.84c0.05,0.17 0.07,0.25 0.13,0.42 0.01,0.04 0.03,0.09 0.04,0.14l0.84 2.46c0.01,0.04 0.03,0.09 0.04,0.13l0.36 1.48c0.01,0.04 0.03,0.09 0.05,0.13l0.18 0.56c0.01,0.04 0.03,0.09 0.04,0.13 0.02,0.05 0.04,0.09 0.05,0.14l2.25 6.72c0.01,0.04 0.03,0.09 0.04,0.14l0.54 1.65c0.02,0.05 0.04,0.1 0.05,0.14l1.2 3.93c0.01,0.04 0.03,0.09 0.05,0.14l0.31 0.96c0.02,0.04 0.04,0.09 0.05,0.13 0.02,0.05 0.03,0.1 0.05,0.14 0.07,0.24 0.11,0.38 0.17,0.56 0.06,0.17 0.04,0.1 0.1,0.27l1.37 4.12c0.01,0.05 0.03,0.09 0.05,0.14l0.09 0.27c0.02,0.04 0.03,0.09 0.05,0.13l0.64 1.92c0.02,0.03 0.05,0.1 0.07,0.12 0.01,0.03 0.05,0.08 0.06,0.12l1.1 0c0.28,-0.68 0.53,-0.25 1.42,-0.41 0.79,-0.15 1.64,-0.62 2.61,-0.69 1.37,-0.1 1.48,-0.31 2.19,-0.37 1.9,-0.14 1.46,-0.33 3.68,-0.35l1.08 -0.2c0.88,-0.31 11.33,-0.39 12.33,-0.05 0.04,0.01 0.08,0.04 0.12,0.05l0.26 0.11c0.75,0.21 1.66,-0.06 2.41,0.15 1.61,0.46 1.11,0.14 2.72,0.58 0.63,0.17 1.21,0.01 1.81,0.21l2.32 0.42c0.17,0.05 -0.15,0.03 0.41,0.14l1.16 0.12c0.05,0.02 0.09,0.04 0.13,0.05 0.72,0.23 1.56,0.15 2.2,0.37 0.51,0.16 -0.34,0.02 0.53,0.2 0.43,0.08 0.82,-0.01 1.24,0.05 0.88,0.11 0.11,0.14 0.97,0.31 0.46,0.09 0.67,-0.01 1.15,0.12l0.39 0.16c0.41,0.13 0.04,0.08 0.61,0.13 0.5,0.03 0.7,-0.06 1.2,0.07l2.09 0.48c0.29,0.1 -0.34,0.04 0.56,0.17 1.14,0.16 0.97,-0.06 2.27,0.3 0.63,0.17 1.21,0.01 1.81,0.2l3.41 0.62c0.41,0.01 0.9,-0.04 1.3,-0.03l1.17 0.31c1.25,0.35 3.09,-0.08 4.26,0.31 0.68,0.23 7.29,0.29 8.47,0.12 1.06,-0.15 0.64,-0.38 2.38,-0.36l1.8 -0.03c0.78,-0.17 0.78,-0.29 1.69,-0.33 0.37,-0.01 0.3,0.02 0.65,-0.08 0.04,-0.01 0.09,-0.03 0.13,-0.05l1.6 -0.23c0.14,0 0.4,0 0.53,-0.02l1.61 -0.4c0.05,-0.02 0.1,-0.03 0.15,-0.04l0.27 -0.1c1.41,-0.45 2.93,-0.65 4.34,-0.96l1.93 -0.64c0.26,-0.05 0.37,-0.03 0.63,-0.09l13.1 -3.38c0.04,-0.02 0.09,-0.04 0.13,-0.06l4.86 -1c0.05,-0.01 0.09,-0.03 0.14,-0.04l1.39 -0.25c0.85,-0.13 0.73,-0.35 1.66,-0.36l1.35 -0.12c0.04,-0.01 0.08,-0.04 0.12,-0.05 0.05,-0.02 0.09,-0.05 0.13,-0.06 0.05,-0.01 0.09,-0.04 0.13,-0.05 0.32,-0.09 0.3,-0.08 0.65,-0.09l2.39 -0.17c1.08,-0.39 10.07,-0.33 10.98,0l0.26 0.11c0.85,0.24 1.3,-0.1 2.93,0.36 0.76,0.22 1.83,-0.03 2.54,0.21l1.7 0.32c0.49,0.13 0.14,0.22 0.99,0.28 0.5,0.04 0.71,-0.06 1.21,0.08l0.52 0.21c0.82,0.22 1.78,0.22 2.9,0.58 0.06,0.02 0.2,0.09 0.26,0.1 0.44,0.14 0.04,0.06 0.61,0.12l2.29 0.46c0.05,0.02 0.09,0.03 0.14,0.05l4.8 1.24c0.04,0.02 0.09,0.03 0.13,0.05l1.11 0.35c0.55,0.12 0.86,-0.04 1.05,0.42l0.73 0c0,-0.26 -0.02,-0.43 0.04,-0.69 0.01,-0.05 0.02,-0.1 0.03,-0.15l1.76 -5.93c0.01,-0.05 0.03,-0.1 0.04,-0.14l1.2 -3.93c0.2,-0.6 -0.01,0.28 0.18,-0.56 0.07,-0.33 0.04,-0.43 0.13,-0.78l0.14 -0.41c0.02,-0.04 0.04,-0.09 0.05,-0.13 0.02,-0.04 0.03,-0.09 0.05,-0.14 0.21,-0.62 -0.12,0.35 0.08,-0.28l1.92 -6.49c0.02,-0.05 0.04,-0.09 0.05,-0.14l1.46 -5.13c0.02,-0.05 0.04,-0.09 0.05,-0.13l0.56 -2.01c0.18,-0.84 -0.03,0.03 0.17,-0.56l0.28 -0.82c0.01,-0.05 0.03,-0.09 0.05,-0.14l0.42 -1.22c0.01,-0.05 0.03,-0.09 0.04,-0.14l1.47 -5.13c0.26,-0.99 0.55,-1.97 0.46,-3.03 -0.15,-1.72 -1.52,-2.93 -2.93,-3.67 -0.04,-0.01 -0.09,-0.04 -0.12,-0.06 -0.04,-0.02 -0.08,-0.05 -0.12,-0.06l-1.6 -0.24c-18.12,0.19 -36.25,0.01 -54.38,0.01l-107.27 0c-0.69,0.09 -0.55,0.16 -1.05,0.42l-0.36 0.18c-0.04,0.02 -0.09,0.04 -0.13,0.06 -0.85,0.45 -0.57,0.78 -1.58,0.8z"/>
   <path class="fil0" d="M8.51 161.6c-0.02,0.73 -0.39,0.85 -0.82,1.37l-0.59 1.07c-0.7,1.4 -0.77,2.33 -0.79,3.79l0 1.56c0,0.03 0.01,0.05 0.01,0.07 0.14,1.03 0.02,0.16 0.22,0.7l0.79 2.32c0.12,0.24 0.08,0.17 0.2,0.35 0.47,0.72 1.32,1.51 1.98,2.04 0.26,0.21 0.07,0.07 0.33,0.23l1.59 0.61c0.12,0.04 -0.07,0.04 0.41,0.14 0.75,0.15 2.02,0.15 2.77,-0.09l0.95 -0.33c0.05,-0.02 0.09,-0.04 0.14,-0.05l4.39 -1.46c0.06,-0.02 0.21,-0.08 0.27,-0.1l0.69 -0.22c0.05,-0.02 0.1,-0.04 0.14,-0.05l1.64 -0.56c0.62,-0.2 -0.34,0.12 0.28,-0.08l1.74 -0.46c0.05,-0.01 0.09,-0.03 0.14,-0.05 0.04,-0.01 0.08,-0.04 0.13,-0.05l3.63 -0.95c0.04,-0.01 0.09,-0.03 0.14,-0.04l7.4 -1.75c1.07,-0.21 0.72,-0.27 2.07,-0.31 0.97,-0.03 0.46,-0.22 1.46,-0.37 0.57,-0.08 1.43,0.05 2.01,0 1.14,-0.1 0.26,-0.38 3.29,-0.37 1.76,0 7.08,-0.3 8.42,0.18 0.53,0.19 1.68,0.08 2.31,0.26l0.26 0.11c0.04,0.01 0.08,0.04 0.13,0.05 0.7,0.23 1.36,0.06 2.06,0.31l2.07 0.31c0.51,0.17 -0.35,0.07 0.7,0.22l6.19 1.14c0.42,0.06 0.25,0.05 0.44,0.11 0.04,0.01 0.08,0.04 0.12,0.05 0.75,0.26 1.46,0.11 2.2,0.37l1.28 0.18c1.01,0.04 0.68,0.24 2.38,0.37 0.57,0.04 0.86,0.32 1.47,0.36 1.7,0.13 1.37,0.33 2.37,0.37 0.33,0.02 0.55,-0.03 0.88,0.04 0.06,0.01 0.1,0.02 0.15,0.04l0.39 0.16c0.91,0.31 1.97,-0.06 2.9,0.2 1.98,0.57 2.98,0.01 4.29,0.48 1.39,0.49 9.92,0.16 12.46,0.19l1.58 -0.25c0.58,-0.19 1.02,-0.14 1.71,-0.12l1.59 -0.25c0.85,-0.28 2.31,-0.04 3.29,-0.36 0.71,-0.24 0.99,-0.03 1.67,-0.17l1.49 -0.33c1.51,-0.16 0,-0.25 1.48,-0.36 0.28,-0.02 0.61,0.02 0.9,-0.01 1.06,-0.14 1.85,-0.55 2.96,-0.71l2.46 -0.47c0.04,-0.01 0.09,-0.03 0.13,-0.04l6.23 -1.47c0.04,-0.01 0.09,-0.03 0.13,-0.05l12.55 -3.2c0.04,-0.01 0.09,-0.03 0.13,-0.04l3.67 -0.73c1.11,-0.36 1.13,-0.12 2.58,-0.53 0.74,-0.21 9.06,-0.17 9.8,-0.07 1.2,0.18 0.79,0.34 2.4,0.35l5.39 1.02c0.35,0.1 0.44,0.06 0.78,0.14 0.05,0.01 0.09,0.02 0.14,0.04l1.61 0.41c0.04,0.01 0.08,0.04 0.13,0.05l3.2 0.83c0.24,0.08 0.5,0.15 0.69,0.22 0.05,0.01 0.22,0.08 0.27,0.1 0.14,0.04 0.22,0.07 0.41,0.13l1.79 0.6c0.13,0.04 0.23,0.07 0.41,0.13l5.31 1.65c0.04,0.01 0.09,0.04 0.13,0.06l5.99 2.24c0.05,0.02 0.1,0.03 0.14,0.04l4.9 1.52c1.07,0.05 1.89,-0.13 2.86,-0.46l0.52 -0.21c0.24,-0.12 0.17,-0.08 0.35,-0.2l1.96 -1.89c0.61,-0.68 0.81,-1.7 1.09,-2.56l0.09 -0.28c0.12,-0.35 0.22,-0.79 0.28,-1.26l0 -2.81c-0.01,-0.07 -0.02,-0.13 -0.04,-0.2l-0.19 -0.54c-0.01,-0.04 -0.03,-0.09 -0.05,-0.13l-1.75 -3.38c-0.35,-0.52 -1.42,-1.19 -2.24,-1.6 -0.04,-0.02 -0.08,-0.04 -0.12,-0.06l-0.25 -0.12c-0.03,-0.02 -0.08,-0.05 -0.12,-0.06 -0.05,-0.03 -0.19,-0.1 -0.24,-0.13l-3.83 -1.29c-0.06,-0.02 -0.23,-0.06 -0.29,-0.08l-1.26 -0.57c-0.28,-0.11 -0.17,-0.05 -0.42,-0.13l-6.28 -1.96c-0.04,-0.02 -0.09,-0.03 -0.13,-0.05 -0.04,-0.02 -0.09,-0.03 -0.13,-0.05l-5.55 -1.6c-0.04,-0.01 -0.09,-0.02 -0.14,-0.04l-1.74 -0.46c0,0 -0.26,-0.1 -0.26,-0.1l-3.04 -0.62c-1.71,-0.53 -1.46,-0.34 -3.01,-0.65l-1.5 -0.33c-0.86,-0.09 0.35,0.1 -0.33,-0.04 -0.57,-0.11 -0.24,-0.08 -0.41,-0.14 -0.61,-0.21 -1.16,-0.09 -1.79,-0.22l-0.67 -0.25c-0.4,-0.11 -0.42,-0.07 -0.84,-0.08l-3.3 -0.36c-1.12,-0.09 -0.33,-0.39 -3.29,-0.36l-1.59 -0.25c-0.92,-0.31 -3.29,-0.36 -4.37,-0.05 -2.26,0.65 -3.21,-0.04 -4.66,0.47 -0.87,0.31 -1.8,0.14 -2.69,0.43 -0.63,0.2 -0.93,0.05 -1.57,0.25l-5.12 1.1c-0.06,0.02 -0.2,0.09 -0.26,0.11l-6.63 1.61c-0.05,0.02 -0.1,0.02 -0.15,0.03l-1.47 0.37c-0.05,0.01 -0.09,0.02 -0.14,0.04l-4.3 1.19c-0.05,0.01 -0.09,0.04 -0.13,0.05l-5.73 1.42c-0.12,0.04 0.1,0.04 -0.41,0.14 -1.58,0.31 -1.34,0.13 -3.01,0.64l-0.97 0.14c-1.5,0.15 0.01,0.25 -1.46,0.36 -0.75,0.06 -1,-0.11 -1.71,0.12 -0.51,0.18 0.37,0.09 -0.69,0.23 -0.26,0.04 -0.64,0.01 -0.91,0.01 -1.14,0 -1.07,0.38 -3.29,0.37 -0.78,0 -3,-0.1 -3.62,0.03l-0.66 0.26c-0.71,0.2 -2.02,-0.02 -2.43,-0.16 -1.97,-0.67 -5.09,0.26 -6.96,-0.37 -0.78,-0.26 -1.75,-0.01 -2.61,-0.14l-0.82 -0.28c-0.56,-0.16 -1.17,-0.04 -1.77,-0.06 -1,-0.04 -0.61,-0.25 -2.36,-0.38 -0.57,-0.04 -0.86,-0.32 -1.47,-0.37 -0.29,-0.02 -0.61,0.03 -0.9,-0.01 -1.21,-0.16 0.14,-0.29 -1.48,-0.35l-1.54 -0.29c-0.61,-0.17 -1.07,0.01 -1.68,-0.16l-2.21 -0.52c-0.6,-0.2 -1.02,-0.06 -2.34,-0.42l-3.2 -0.46c-1.21,-0.15 0.14,-0.29 -1.47,-0.35l-1.55 -0.29c-0.67,-0.18 -1.26,-0.02 -1.94,-0.26l-1.46 -0.18c-1.48,-0.11 0.03,-0.2 -1.47,-0.36 -0.41,-0.04 -0.4,0.03 -0.83,-0.09 -2.3,-0.61 -2.35,0.05 -4.05,-0.52 -0.98,-0.33 -5.89,-0.25 -7.2,-0.14 -1.52,0.14 0.06,0.25 -1.46,0.38 -0.55,0.05 -1.29,-0.06 -1.84,-0.01 -1.53,0.13 0.07,0.26 -1.45,0.38 -0.75,0.05 -1,-0.12 -1.71,0.12l-3.22 0.63c-0.05,0.01 -0.1,0.01 -0.15,0.02 -0.05,0.02 -0.1,0.03 -0.15,0.04l-10.28 2.72c-0.05,0.01 -0.1,0.03 -0.14,0.04 -0.05,0.01 -0.1,0.02 -0.15,0.04l-5.31 1.64c-0.63,0.22 0.37,-0.12 -0.27,0.1l-7.82 3.16c-0.39,0.27 0.28,0.24 -0.83,0.27z"/>
   <path class="fil0" d="M164.85 50.66l6.23 0c0.15,0.43 0.28,0.57 0.73,0.73l-0.37 6.41 -0.98 0.48 -4.16 0.08c-0.57,-0.01 -0.51,0.01 -0.96,-0.14 -0.38,-0.12 0.27,-0.21 -0.85,-0.24 -0.04,-1.46 -0.31,0.05 -0.38,-1.63 -0.07,-1.52 -0.25,-3.78 0.43,-5.09 0.02,-0.03 0.05,-0.08 0.07,-0.12 0.02,-0.03 0.04,-0.08 0.06,-0.12 0.09,-0.18 0.01,0.12 0.18,-0.36zm-15.74 0l6.22 0c0.16,0.43 0.29,0.57 0.74,0.73l-0.37 6.41 -0.98 0.48c-0.43,0.12 -4.42,0.17 -5.12,-0.06 -0.39,-0.12 0.27,-0.21 -0.86,-0.24 -0.03,-1.46 -0.3,0.05 -0.38,-1.63 -0.05,-1.33 -0.21,-3.85 0.38,-4.97l0.37 -0.72zm-15.75 0l6.23 0c0.15,0.43 0.28,0.57 0.73,0.73l0 6.22c-0.39,0.15 -0.18,0 -0.45,0.28 -0.27,0.28 -0.14,0.06 -0.28,0.46l-5.86 0c-0.2,-0.49 0.38,-0.34 -0.73,-0.37 0,-0.41 0.03,-0.46 -0.08,-0.84 -0.49,-1.75 -0.28,-0.34 -0.29,-3 0,-0.91 -0.12,-1.71 0.17,-2.4 0.02,-0.04 0.04,-0.08 0.06,-0.12l0.5 -0.96zm21.61 -5.13l-27.83 0 0 14.28 -5.5 -0.01c-1.48,-0.02 -1.3,-0.01 -1.46,0.38 -0.44,0.18 -0.39,0.05 -0.37,1.64l0.01 6.05 7.32 0 0 16.11 14.65 0 0 17.21 33.7 0.02c1.11,-0.12 0.49,0.16 0.71,-0.39 0.48,-0.19 0.26,0.01 0.37,-0.54l0 -32.41 6.96 0 0 -8.06 -6.96 0 0 -13.37c-0.11,-0.55 0.11,-0.35 -0.37,-0.54 -0.1,-0.25 0.16,-0.4 -1.26,-0.38l-12.65 0.01 0 -21.23 -7.32 0 0 21.23z"/>
   <path class="fil0" d="M115.79 100.82c0.2,0.49 -0.11,0.18 0.39,0.34 0.09,0.03 0.57,0.05 0.69,0.05 0.48,0 0.99,-0.02 1.48,-0.02l19.74 -0.03c0.51,-0.17 0.2,0.16 0.4,-0.34 0.49,-0.2 0.18,0.11 0.34,-0.4 0.03,-0.11 0.04,-0.72 0.04,-0.87l-0.01 -8.98c0,-0.62 -0.01,-1.23 0,-1.84 0.01,-0.1 0.01,-0.87 0,-0.91 -0.11,-0.56 0.11,-0.35 -0.37,-0.55 -0.18,-0.45 0.56,-0.39 -1.83,-0.36l-16.66 0c-6.07,0 -4.47,-2.1 -4.58,11.9 -0.02,2.22 -0.18,1.79 0.37,2.01z"/>
   <path class="fil0" d="M87.23 101.19l22.67 -0.03c0.5,-0.17 0.2,0.16 0.4,-0.34 0.49,-0.2 0.17,0.11 0.33,-0.4 0.04,-0.11 0.05,-0.72 0.05,-0.87l-0.01 -11.73c-0.12,-0.56 0.11,-0.35 -0.37,-0.55 -0.23,-0.55 0.4,-0.27 -0.71,-0.38l-17.78 0.02c-5.57,0 -4.58,-0.93 -4.58,4.76 0,3.17 0,6.34 0,9.52z"/>
   <path class="fil0" d="M59.04 101.19l23.06 0 0 -14.28 -20.87 0c-0.5,-0.01 -1.44,-0.12 -1.85,0.16 -0.7,0.49 -0.34,3.55 -0.34,4.78 0,3.11 0,6.22 0,9.34z"/>
   <path class="fil0" d="M59.04 63.47l23.06 0 0 -14.28 -20.87 0c-2.85,-0.03 -2.19,-0.05 -2.19,4.95 0,3.11 0,6.22 0,9.33z"/>
   <path class="fil0" d="M30.84 101.19l23.07 0 0.01 -13.37c-0.12,-0.56 0.1,-0.35 -0.38,-0.55 -0.2,-0.51 0.17,-0.34 -0.89,-0.39l-10.27 0.03c-3.85,0 -7.69,0 -11.54,0l0 14.28z"/>
   <path class="fil0" d="M30.84 63.47l23.07 0 0 -10.62c0,-0.61 0,-1.22 0.01,-1.83 0.03,-1.48 0.01,-1.3 -0.38,-1.46 -0.24,-0.62 0.02,-0.37 -2.38,-0.37l-20.32 0 0 14.28z"/>
   <polygon class="fil0" points="87.23,82.15 110.66,82.15 110.66,68.23 87.23,68.23 "/>
   <polygon class="fil0" points="30.84,82.15 53.91,82.15 53.91,68.23 30.84,68.23 "/>
   <polygon class="fil0" points="59.04,82.15 82.1,82.15 82.1,68.23 59.04,68.23 "/>
  </g>
 </g>
</svg>
