<?xml version="1.0" encoding="UTF-8"?>
<!DOCTYPE svg PUBLIC "-//W3C//DTD SVG 1.1//EN" "http://www.w3.org/Graphics/SVG/1.1/DTD/svg11.dtd">
<!-- Creator: CorelDRAW 2021 (64 Bit) -->
<svg xmlns="http://www.w3.org/2000/svg" xml:space="preserve" width="200px" height="200px" version="1.1" style="shape-rendering:geometricPrecision; text-rendering:geometricPrecision; image-rendering:optimizeQuality; fill-rule:evenodd; clip-rule:evenodd"
viewBox="0 0 200 200"
 xmlns:xlink="http://www.w3.org/1999/xlink"
 xmlns:xodm="http://www.corel.com/coreldraw/odm/2003">
 <defs>
  <style type="text/css">
   <![CDATA[
    .fil0 {fill:#1D3557}
   ]]>
  </style>
 </defs>
 <g id="avião">
  <metadata id="CorelCorpID_0Corel-Layer"/>
  <path class="fil0" d="M104.19 44.56c1.28,-1.57 2.75,-1.59 2.88,-4.72 -1.27,-3.02 -3.62,-3.66 -6.09,-1.51 -2.11,1.83 -3.64,2.39 -5.51,4.39l-21.03 -3.56c0.44,-1.7 2.93,-1.87 3.44,-4.16 0.59,-2.68 -1.37,-3.99 -3.94,-4.14 -2.71,1.09 -5.74,5.16 -8.52,6.72 -5.21,1.14 -37.54,-11.9 -50.21,1.51 1.5,1.15 19.51,8.41 22.79,9.78 7.72,3.21 15.38,6.48 23.05,9.6 4.94,2.01 44.49,18.24 45.76,19.29l-10.14 8.96c-3.98,3.37 -7.02,6.04 -10.7,8.97 -7.31,5.8 -14.11,12.09 -21.34,18.03 -18.57,15.24 -19.07,13.74 -44.6,9.67 -3.35,-0.54 -5.3,-1.49 -8.83,-0.8 -2.31,0.45 -5.24,1.84 -6.34,3.37 1.35,1.91 30.35,22.03 32.3,24.19 1.17,1.3 15.25,28.77 17.76,33.68 0.99,1.94 0.76,1.64 1.73,2.23 4.76,-5.5 4.43,-6.1 4.54,-14.94 0.08,-6.13 -0.02,-12.43 0.15,-18.46 0.22,-7.24 6.15,-15.28 10.6,-19 1.98,-1.65 3.56,-2.96 5.44,-4.61l31.59 -27.06c1.86,-1.57 3.35,-2.88 5.17,-4.47 1.41,-1.23 4.06,-3.76 5.7,-4.61l23.65 96.52c3.69,-1.5 7.5,-9.57 8.74,-14.6 1.65,-6.72 0.93,-14.63 0.81,-21.44 -0.24,-14.41 -1.39,-12.42 4.03,-17.2 1.32,-1.17 5.61,-3.68 3.29,-6.7 -2.83,-3.68 -5.76,0.78 -7.66,1.32l-0.09 -17.49c-0.06,-2.81 -0.41,-3.11 1.29,-4.56 1.22,-1.04 5.87,-4.29 6.06,-6.27 0.17,-1.71 -1.25,-3.3 -2.78,-3.59 -2.27,-0.42 -2.87,0.98 -4.33,1.98 -0.67,-1.69 -0.58,-15.47 -0.6,-17.18 -0.07,-4.93 -0.68,-13.2 -0.07,-17.69l27.71 -23.75c3.69,-4.06 8.57,-8.76 10.19,-15.93 1.22,-5.36 0.32,-7.57 -5.2,-7.7 -9.31,-0.22 -18.84,8.11 -24.84,13.26l-20.73 17.85c-1.91,1.36 -8.73,-0.55 -11.53,-1.04 -7.13,-1.26 -16.99,-2.31 -23.59,-4.14l0 0z"/>
 </g>
</svg>
