<?xml version="1.0" encoding="UTF-8"?>
<!DOCTYPE svg PUBLIC "-//W3C//DTD SVG 1.1//EN" "http://www.w3.org/Graphics/SVG/1.1/DTD/svg11.dtd">
<!-- Creator: CorelDRAW 2021 (64 Bit) -->
<svg xmlns="http://www.w3.org/2000/svg" xml:space="preserve" width="200px" height="200px" version="1.1" style="shape-rendering:geometricPrecision; text-rendering:geometricPrecision; image-rendering:optimizeQuality; fill-rule:evenodd; clip-rule:evenodd"
viewBox="0 0 200 200"
 xmlns:xlink="http://www.w3.org/1999/xlink"
 xmlns:xodm="http://www.corel.com/coreldraw/odm/2003">
 <defs>
  <style type="text/css">
   <![CDATA[
    .fil0 {fill:#1D3557}
   ]]>
  </style>
 </defs>
 <g id="pedagio">
  <metadata id="CorelCorpID_0Corel-Layer"/>
  <path class="fil0" d="M88.63 145.04c-0.58,2.38 -3.36,1.79 -5.96,1.79l-38.56 0c-2.48,0 -5.18,0.11 -7.64,0 -1.26,-0.05 -2.11,-0.6 -2.38,-1.55 -0.19,-0.63 -0.19,-3.17 -0.03,-3.81 0.54,-2.23 3.62,-1.67 6.02,-1.67l38.56 0c2.5,0 5.15,-0.08 7.64,0.01 1.2,0.05 2.01,0.6 2.31,1.62 0.14,0.5 0.16,3.11 0.04,3.61zm42.2 -82.51c0.44,-0.68 0.31,-2.03 0.29,-3.11 -0.01,-0.76 0.26,-2.87 -1,-2.22 -0.57,0.29 -0.34,2.36 -0.35,3.09 0,1.22 -0.37,2.45 1.06,2.24zm-16.66 -0.07c0.43,0.14 0.62,0.13 1.04,-0.01 0.43,-0.97 0.17,-3.92 0.05,-5.23 -1.53,-0.39 -1.24,0.66 -1.24,1.91 0,0.99 -0.09,2.53 0.15,3.33zm-0.06 59.91c-0.59,0.25 -2.94,2.8 -3.53,3.38 -0.95,0.93 -2.57,2.21 -2.55,4.47 0.02,2.27 1.67,3.56 2.64,4.51 0.44,0.43 3.09,3.23 3.45,3.3l-0.01 -15.66zm14.18 0.22c-1.33,4.87 -8.73,2.81 -7.25,-2.08 1.4,-4.63 8.54,-2.69 7.25,2.08zm35.56 44.18c0.56,3.03 4.14,2.35 7.17,2.35l18.71 0c1.64,0.01 2.63,-0.54 3.14,-1.65 0.38,-0.82 0.41,-3.2 0.25,-4.22 -0.48,-3.04 -4.26,-2.42 -7.13,-2.42l-18.71 0c-1.66,0 -2.6,0.54 -3.17,1.61 -0.38,0.71 -0.43,3.4 -0.26,4.33zm-49.22 -96.42c-0.5,-2.2 -0.03,-1.75 4.73,-1.75 1.11,0 2.21,0.01 3.32,0 1.52,-0.02 1.72,0.19 1.34,1.8 -1.01,0.14 -8.6,0.15 -9.39,-0.05zm-0.11 -3.75c-0.16,-1.58 0.63,-1.12 3.98,-1.12 2.82,0 9.56,-0.23 12.05,0.16 0.45,1.97 -0.34,1.71 -1.83,1.71 -1.89,-0.01 -13.31,0.18 -13.97,-0.12 -0.13,-0.16 -0.05,0.04 -0.16,-0.27 -0.06,-0.17 -0.05,-0.16 -0.07,-0.36zm-4.05 -1.85l0 7.33c0,3.03 -0.11,2.54 4.72,2.54l14.68 0c5.46,0 4.83,0.73 4.83,-4.41l0 -5.75c0,-0.87 0.19,-2.26 -0.32,-2.78 -0.41,-0.42 -1.39,-0.38 -2.08,-0.36 -0.57,0.03 -0.31,-0.12 -0.67,0.17 -0.35,0.6 0.01,1.52 -1.18,1.51 -1.13,-0.02 -0.94,-0.81 -1.15,-1.68 -0.01,0 -13.16,-0.06 -13.37,0.11 -0.28,0.22 0.06,1.53 -1.18,1.57 -1.04,0.04 -0.99,-0.77 -1.22,-1.62 -3.4,-0.58 -3.06,0.6 -3.06,3.37zm12.42 61.63c-0.44,-0.44 -2.29,-1.05 -3,-3.31 -1.29,-4.13 2.87,-6.04 2.94,-6.19 0.3,-0.62 -0.31,-1.88 0.55,-2.51 0.53,-0.4 2.05,-0.36 2.56,0.05 0.65,0.54 0.4,1.58 0.47,2.57 1.73,0.71 3.21,2.26 3.19,4.74 -0.03,3.06 -2.28,3.86 -3.21,4.6l-0.01 19.59 -3.48 0.01 -0.01 -19.55zm9.65 19.76c-0.05,-8.9 -0.01,-17.81 -0.01,-26.71 0,-4.51 0.94,-9.16 -2.67,-10.78 -1.63,-0.74 -4.25,-0.45 -6.18,-0.46 -2.36,0 -3.88,-0.18 -5.39,1.24 -1.57,1.47 -1.58,2.57 -1.57,5.25l0 29.93c0.01,2.11 0.18,1.19 -0.94,2.31 -1.48,1.48 -1.12,3.01 -1.13,5.46 0,2.17 -0.05,4.42 0.01,6.64l19.97 -0.02c0.04,-1.5 0.21,-9.75 -0.29,-10.95 -0.47,-1.11 -1.02,-1.22 -1.8,-1.91zm6.69 -34.91l-0.64 -5.2c0.63,-0.43 7.82,-7.69 9.12,-9.05l0.72 -0.58c0.1,0.25 0.93,4.74 0.46,5.35 -0.36,0.48 -1.13,1.11 -1.59,1.58 -0.56,0.56 -1.02,1.03 -1.58,1.59 -0.84,0.82 -5.99,6.12 -6.49,6.31zm22.34 -27.94c0.14,0.64 0.75,4.73 0.6,5.12l-8.66 8.59c-0.16,-0.08 -0.78,-4.63 -0.67,-4.99 0.13,-0.39 2.34,-2.46 2.8,-2.93l4.4 -4.38c0.52,-0.51 0.85,-1.12 1.53,-1.41zm5 0.72c-0.2,-0.82 -0.31,-2 -0.42,-2.88 -0.13,-1.02 -0.49,-2.03 0.06,-2.63l9.99 -9.91c0.06,0.09 0.08,0.1 0.15,0.31l0.3 2.18c0.11,0.79 0.28,1.8 0.3,2.59 -0.35,0.5 -10.15,10.2 -10.38,10.34zm14.64 -14.74c-0.15,-2.2 -0.97,-4.76 -0.18,-5.59 1.93,-2.04 2.35,-2.5 3.66,-1.23 2.02,1.95 1.53,1.93 -0.18,3.69 -0.58,0.61 -2.69,2.83 -3.3,3.13zm-46.06 54.1c0.73,-0.41 14.06,-13.93 14.93,-14.82 9.67,-9.89 19.83,-19.58 29.5,-29.49l7.42 -7.4c1.26,-1.21 2.45,-2.42 3.66,-3.69 1.3,-1.36 1.74,-3.59 0.56,-5.44 -0.77,-1.22 -2.58,-2.79 -3.63,-3.85 -0.96,-0.98 -2.35,-2.72 -4.34,-3 -2.54,-0.36 -3.96,1.35 -4.95,2.38 -1.23,1.28 -2.42,2.41 -3.67,3.68 -4.93,4.97 -9.85,9.75 -14.76,14.73l-7.42 7.41c-2.52,2.38 -4.83,4.91 -7.33,7.34 -2.53,2.45 -4.93,4.91 -7.42,7.41 -1.24,1.24 -2.38,2.48 -3.66,3.67 -0.62,0.58 -3.31,3.1 -3.59,3.77 2.38,1.04 4.48,2.97 4.68,6.32 0.21,3.53 -0.05,7.4 0.02,10.98zm-128.39 43.54c0.54,3.09 4.73,2.33 7.56,2.33 45.71,0 91.6,-0.15 137.28,0 1.82,0.01 2.78,-0.21 3.49,-1.42 0.54,-0.93 0.56,-3.24 0.36,-4.48 -0.47,-3.12 -4.59,-2.39 -7.6,-2.39l-68.63 0c-22.81,0 -45.85,0.11 -68.64,0 -1.73,-0.01 -2.82,0.35 -3.49,1.46 -0.5,0.82 -0.52,3.42 -0.33,4.5zm35.43 -62.16c-0.02,-13.09 0.1,-26.56 -0.02,-39.61l38.23 -0.01c0.15,13.55 -0.05,27.33 0.03,40.96l-1.21 0.02c-12.24,0.13 -24.77,-0.11 -37.05,0.01l0.02 -1.37zm6.89 -74.65c-9.52,0.03 -19.05,0.16 -28.57,0.2 -1.81,0.01 -5.4,-0.29 -6.75,0.5 -1.88,1.11 -1.57,2.93 -1.58,5.6 -0.01,4.85 -0.37,9.05 4.07,10.3 1.52,0.43 24.94,0.18 28.58,0.18l57.55 0c2.39,0 4.48,0.24 6.04,-1.13 1.34,-1.18 1.97,-2.72 2.06,-5.17 0.07,-2.03 0.13,-5.24 -0.03,-7.2 -0.18,-2.32 -1.83,-2.99 -4.18,-3 -19.08,-0.11 -38.1,-0.35 -57.19,-0.28zm31.07 97.96c-0.57,2.2 -2.46,2.06 -4.82,2.07l-34.1 0c-3.68,0 -7.2,0.8 -7.27,-3.08 -0.1,-6.33 0.36,-5.36 11.73,-5.36l27.34 0c1.72,0 4.99,-0.36 6.19,0.61 0.68,0.55 1.02,1.21 1.05,2.45 0.03,0.89 0.09,2.53 -0.12,3.31zm-45.55 -69.18l53.41 -0.01c1.05,1.56 0.63,7.4 0.63,9.76l0 31.23c0,3.39 0.12,7 -0.01,10.36 -0.15,4.21 -3.89,4.13 -6.39,4.13l-41.73 0c-1.63,0 -3.22,0.18 -4.53,-0.61 -0.95,-0.57 -1.88,-1.64 -2,-3.23 -0.23,-3.16 -0.01,-7.25 -0.01,-10.51l0 -31.23c0,-2.45 -0.49,-8.27 0.63,-9.89zm78.97 0.36c0.12,-1.09 -0.19,-2.61 1.17,-2.53 1.28,0.08 0.96,1.38 1.07,2.53 1.02,0.18 13.01,0.15 13.54,-0.04 0.08,-1.15 -0.21,-2.61 1.21,-2.49 1.29,0.12 0.8,1.41 1.03,2.56 0.86,0.04 4.66,0.12 5.29,-0.04 0.94,-0.24 0.83,-1 0.82,-1.97 -0.02,-3.43 0.35,-2.94 -5.1,-2.94 -8.73,0 -17.97,0.19 -26.56,0 -0.55,-0.76 -0.47,-1.31 -1.2,-1.96 -1.73,-1.51 -5.52,-0.94 -8.35,-0.94 -24.97,0 -50.19,0.13 -75.12,0 -5.17,-0.03 -4.75,2.97 -4.75,7.57l0 87.63c0,3.99 -0.19,8.44 0,12.4l89.4 0 0.05 -99.62c0.71,-0.3 6.21,0.07 7.5,-0.16z"/>
 </g>
</svg>
