<?xml version="1.0" encoding="UTF-8"?>
<!DOCTYPE svg PUBLIC "-//W3C//DTD SVG 1.1//EN" "http://www.w3.org/Graphics/SVG/1.1/DTD/svg11.dtd">
<!-- Creator: CorelDRAW 2021 (64 Bit) -->
<svg xmlns="http://www.w3.org/2000/svg" xml:space="preserve" width="200px" height="200px" version="1.1" style="shape-rendering:geometricPrecision; text-rendering:geometricPrecision; image-rendering:optimizeQuality; fill-rule:evenodd; clip-rule:evenodd"
viewBox="0 0 200 200"
 xmlns:xlink="http://www.w3.org/1999/xlink"
 xmlns:xodm="http://www.corel.com/coreldraw/odm/2003">
 <defs>
  <style type="text/css">
   <![CDATA[
    .fil0 {fill:#1D3557}
   ]]>
  </style>
 </defs>
 <g id="pessoas">
  <metadata id="CorelCorpID_0Corel-Layer"/>
  <g id="_1775453532960">
   <path class="fil0" d="M119.89 83.47c2.28,0.75 3.51,1.39 6.37,1.42 12.15,0.14 19.26,-12.18 14.82,-22.14 -4.37,-9.81 -16.84,-12.91 -25.55,-5.06 -1.27,1.14 -2.51,3.1 -3.3,4.69 -0.55,1.09 -1.86,4.98 -1.4,6.32 0.12,0.35 1.72,1.42 2.14,1.78 4.04,3.46 5.8,7.03 6.92,12.99zm-93.88 13c0.01,-8.97 2.24,-18.01 5.14,-25.52 3.57,-9.31 8.2,-15.86 14.01,-22.5 3.61,-4.13 8.69,-8.49 13.21,-11.56 4.71,-3.2 9.57,-5.78 15.09,-7.9 1.85,-0.71 3.89,-1.25 5.68,-1.91l0 -21.08c-2.96,0.05 -12.63,3.66 -15.51,4.85 -4.94,2.03 -9.27,4.37 -13.46,6.92 -4.35,2.64 -8.3,5.72 -11.76,8.61 -1.79,1.5 -3.66,3.4 -5.28,4.99 -0.47,0.47 -0.86,0.8 -1.32,1.29l-3.01 3.35c-0.3,0.31 -0.31,0.28 -0.56,0.57 -14.2,17.04 -22.58,37.29 -22.77,61.03 -0.18,21.49 7.8,43.85 20.9,59.64l8.46 9.14c3.83,3.77 8.11,7.16 13.13,10.5 16.52,10.96 33.95,15.67 55,15.59 6.12,-0.03 12.15,-1.14 17.91,-2.29 0.07,-4.02 0.19,-18.88 -0.1,-21.07 -0.05,0 -8.18,1.82 -9.46,2.03 -4.43,0.74 -7.97,0.86 -12.43,0.87 -12.79,0.03 -25.7,-4.03 -35.93,-9.95 -3.12,-1.81 -10.45,-6.76 -12.97,-9.52 -0.8,-0.87 -1.51,-1.31 -2.31,-2.1l-4.32 -4.81c-4.18,-4.82 -7.53,-10.5 -10.46,-16.43 -3.68,-7.45 -6.88,-19.64 -6.88,-29.16l0 -3.58zm73.94 -72.38c19.78,0.38 35.07,6.87 47.18,16.95l3.98 3.52c0.66,0.53 1.3,1.23 1.9,1.85 20.24,20.82 26.53,51.77 15.57,79.32 -3.02,7.59 -6.98,13.65 -11.2,18.97 -1.65,2.08 -5.59,6.37 -7.34,7.81 -0.41,0.34 -0.57,0.45 -0.95,0.85l-7.48 5.85 -0.02 23.5c1.06,-0.11 5.62,-2.83 6.66,-3.46 2.24,-1.32 4.11,-2.59 6.24,-4.03 1.95,-1.32 5.18,-3.9 7.06,-5.5 2.28,-1.94 4.49,-4.16 6.61,-6.26 0.48,-0.48 0.72,-0.77 1.15,-1.29 0.42,-0.49 0.89,-0.83 1.29,-1.32 5.24,-6.49 8.23,-9.92 12.59,-18.05 18.77,-35.03 13.88,-77.61 -12.74,-107.63 -13.15,-14.84 -32.2,-26.13 -51.76,-29.73 -5.55,-1.03 -12.96,-2.11 -18.69,-1.88l-0.05 20.53zm27.18 114.9c0.61,-0.41 0.28,-10.28 0.28,-11.71 0,-4.04 0.18,-7.19 -0.96,-10.95 -1.71,-5.63 -6.41,-10.57 -11.43,-12.53 -3.78,-1.49 -6.01,-1.62 -10.43,-1.62 -3.82,0 -8.08,-0.17 -11.85,0.04 -6.07,0.34 -12.02,3.49 -15.42,8.38 -4.5,6.46 -3.87,11.23 -3.87,20.1 0,9.91 -0.67,8.23 2.8,9.26 14.79,4.43 31.81,5.76 46.69,0.78 1.01,-0.34 3.48,-1.27 4.19,-1.75zm-81.24 -16.1c2.26,0.49 4.83,1.4 7.27,2.03 2.44,0.62 5.02,1.15 7.56,1.55 2.28,0.36 6.12,0.99 8.36,0.99 0.68,0 0.73,0.38 0.71,-1.48 -0.03,-2.13 -0.03,-4.63 0.23,-6.68 0.77,-6 3.82,-11.13 8.08,-14.92 1.28,-1.14 3.88,-2.87 5.55,-3.58 0.55,-0.24 1.06,-0.47 1.61,-0.68 0.6,-0.22 1.22,-0.32 1.63,-0.72l-2.29 -2.67c-1.36,-1.76 -2.51,-4.45 -3.08,-6.7 -0.18,-0.69 -0.32,-1.36 -0.4,-2.05 -0.04,-0.35 -0.04,-0.66 -0.08,-1l-0.27 -0.96c-1.35,-0.4 -15.74,-0.2 -17.68,0.11 -9.59,1.52 -16.84,9.36 -17.26,18.81l0.06 17.95zm74.02 -37.01c-0.04,8.37 -5.47,12.7 -5.9,13.71 8.28,2.3 14.54,9.5 16.41,17.34 1.22,5.17 0.25,7.95 0.69,10.55 2.36,0.39 9.72,-0.89 12.19,-1.43 3.53,-0.77 7.35,-1.97 10.16,-3.48l0.01 -17.63c-0.23,-4.98 -2.73,-9.93 -5.21,-12.38 -3.19,-3.15 -6.32,-5.45 -11.29,-6.32 -3.19,-0.55 -13.31,-0.42 -17.06,-0.36zm-3.71 1.13c0.96,-8.29 -5,-16.18 -13.95,-17.36 -9.12,-1.2 -16.83,6.08 -17.53,13.93 -0.84,9.48 5.76,16.63 14.01,17.56 9.41,1.07 16.53,-5.99 17.47,-14.13zm-27.77 -16.95c0.68,-1.14 -0.48,-5.53 -0.93,-6.72 -0.77,-2.05 -1.83,-3.51 -2.96,-4.86 -1.96,-2.37 -6.15,-4.9 -10.61,-5.19 -9.23,-0.58 -16.31,6.2 -16.98,14.65 -0.9,11.49 10.65,20.17 21.61,15.87 3.35,-1.32 2.34,-1.23 3.37,-4.46 0.84,-2.6 2.63,-5.7 4.49,-7.4 0.39,-0.36 0.56,-0.56 0.97,-0.99 0.26,-0.26 0.88,-0.63 1.04,-0.9z"/>
  </g>
 </g>
</svg>
