<?xml version="1.0" encoding="UTF-8"?>
<!DOCTYPE svg PUBLIC "-//W3C//DTD SVG 1.1//EN" "http://www.w3.org/Graphics/SVG/1.1/DTD/svg11.dtd">
<!-- Creator: CorelDRAW 2021 (64 Bit) -->
<svg xmlns="http://www.w3.org/2000/svg" xml:space="preserve" width="200px" height="200px" version="1.1" style="shape-rendering:geometricPrecision; text-rendering:geometricPrecision; image-rendering:optimizeQuality; fill-rule:evenodd; clip-rule:evenodd"
viewBox="0 0 200 200"
 xmlns:xlink="http://www.w3.org/1999/xlink"
 xmlns:xodm="http://www.corel.com/coreldraw/odm/2003">
 <defs>
  <style type="text/css">
   <![CDATA[
    .fil0 {fill:#1D3557}
   ]]>
  </style>
 </defs>
 <g id="mapa">
  <metadata id="CorelCorpID_0Corel-Layer"/>
  <path class="fil0" d="M106.88 102.94c0.54,0.09 19.07,12.61 21.49,14.21 2.46,1.65 1.78,0.65 2.77,5.72l6.44 32.22c0.29,1.42 0.81,3.39 0.93,4.74 -0.95,-0.3 -28.45,-14.2 -29.56,-14.74 -2.4,-1.17 -2.09,-0.44 -2.09,-3.39l0 -27.62c0,-3.57 -0.18,-7.62 0.02,-11.14zm70.14 -48.06c-0.88,8.88 -8.72,16.41 -18.73,15.48 -8.95,-0.82 -16.49,-8.79 -15.51,-18.88 0.87,-8.91 8.88,-16.38 18.92,-15.39 8.78,0.86 16.29,8.86 15.32,18.79zm-17.18 65.57c0.3,-0.25 0.27,-0.24 0.48,-0.67l19.67 -38.67c2.26,-4.43 4.66,-8.86 6.73,-13.23 1.17,-2.47 2.07,-4.15 2.82,-7.09 0.69,-2.72 1.1,-6.07 0.9,-9.03 -0.41,-6.21 -2.08,-10.78 -4.84,-15.13 -11.88,-18.62 -39.53,-18.6 -51.36,-0.04 -6.22,9.75 -6.49,20.95 -1.24,31.16 7.83,15.23 15.59,30.9 23.45,46.08 1.09,2.11 2.28,4.7 3.39,6.62zm-98.04 39.4c0.71,-4.68 2.66,-13.32 3.67,-18.46 1.22,-6.19 2.48,-12.35 3.7,-18.53 0.18,-0.88 0.6,-4 1.03,-4.49 0.32,-0.37 2.69,-1.82 3.29,-2.23 1.96,-1.35 19.46,-13.11 19.98,-13.23l0.01 39.5c0,1.6 0.35,1.5 -0.87,2.07 -4.53,2.15 -9.8,4.92 -14.34,7.18l-12.26 6.13c-1.21,0.61 -3.01,1.65 -4.21,2.06zm-14.13 2.35l-26.05 -12.96 22.24 -44.66c1.11,0.5 11.44,11.63 12.76,12.56l-8.95 45.06zm-43.94 -7.04l48.11 24.17c0.96,0.46 2.15,-0.54 3.02,-0.97 1.04,-0.52 2.01,-1 3.02,-1.52l42.28 -21.08c0.34,0 35.99,17.9 42.2,21.04l4.52 2.27c0.66,0.34 0.87,0.62 1.61,0.26 11.97,-5.82 24.13,-12.12 36.12,-18.09l12.02 -6.04c-0.16,-0.77 -17.5,-35.25 -19.67,-39.53 -0.37,-0.73 -0.87,-2.14 -1.39,-2.59 -0.47,0.5 -6,11.72 -6.87,13.38 -0.87,1.66 -0.82,1.03 0.96,4.59 0.66,1.31 8.78,17.28 9.04,18.2l-19.51 9.76c-1.64,0.82 -5,2.72 -6.51,3.2l-9.03 -45.05 1.75 -1.63c-0.06,-0.35 -4.92,-10.21 -6.02,-12.09l-0.31 -0.44c-0.89,0.57 -2.17,2.24 -3.11,3.05 -0.58,-0.18 -7.87,-5.17 -8.99,-5.91l-22.24 -14.84c-0.81,-0.53 -1.46,-0.98 -2.21,-1.48 -0.68,-0.45 -1.67,-1.21 -2.36,-1.51l-35.69 23.77 -23.39 -23.35c-0.12,-0.12 -0.25,-0.29 -0.33,-0.37 -0.42,-0.38 0.01,-0.19 -0.64,-0.38 -0.38,1.24 -17.73,35.67 -18.21,36.61 -0.81,1.62 -18.05,35.82 -18.17,36.57z"/>
 </g>
</svg>
