<?xml version="1.0" encoding="UTF-8"?>
<!DOCTYPE svg PUBLIC "-//W3C//DTD SVG 1.1//EN" "http://www.w3.org/Graphics/SVG/1.1/DTD/svg11.dtd">
<!-- Creator: CorelDRAW 2021 (64 Bit) -->
<svg xmlns="http://www.w3.org/2000/svg" xml:space="preserve" width="200px" height="300px" version="1.1" style="shape-rendering:geometricPrecision; text-rendering:geometricPrecision; image-rendering:optimizeQuality; fill-rule:evenodd; clip-rule:evenodd"
viewBox="0 0 200 300"
 xmlns:xlink="http://www.w3.org/1999/xlink"
 xmlns:xodm="http://www.corel.com/coreldraw/odm/2003">
 <defs>
  <style type="text/css">
   <![CDATA[
    .fil0 {fill:#E94D59}
    .fil2 {fill:white}
    .fil1 {fill:#F4F4F4;fill-rule:nonzero}
   ]]>
  </style>
 </defs>
 <g id="Camada_x0020_1">
  <metadata id="CorelCorpID_0Corel-Layer"/>
  <path class="fil0" d="M99.28 294c-300.28,-390 305.72,-378 0,0z"/>
  <path class="fil1" d="M54.91 78.92l-19.13 -9.61 1.97 -3.91 15.87 7.98 4.86 -9.68 3.26 1.64 -6.83 13.58zm0.32 -23.85c-1.48,-1.63 -2.48,-3.22 -3,-4.77 -0.38,-1.15 -0.54,-2.33 -0.5,-3.55 0.04,-1.22 0.29,-2.32 0.75,-3.32 0.61,-1.33 1.57,-2.58 2.87,-3.76 2.36,-2.15 4.91,-3.12 7.66,-2.95 2.74,0.18 5.3,1.58 7.66,4.18 2.35,2.59 3.49,5.25 3.41,7.98 -0.07,2.74 -1.29,5.18 -3.64,7.31 -2.38,2.16 -4.93,3.15 -7.65,2.97 -2.72,-0.18 -5.24,-1.54 -7.56,-4.09zm3.23 -3.13c1.64,1.81 3.31,2.8 5,2.98 1.68,0.17 3.17,-0.33 4.46,-1.49 1.29,-1.18 1.93,-2.6 1.91,-4.28 -0.02,-1.68 -0.87,-3.45 -2.55,-5.3 -1.67,-1.84 -3.31,-2.84 -4.94,-3.01 -1.62,-0.17 -3.1,0.35 -4.43,1.56 -1.34,1.21 -2,2.64 -1.98,4.29 0.01,1.66 0.85,3.41 2.53,5.25zm31.43 -13.49l-0.81 -3.56 9.14 -2.08 1.91 8.4c-0.69,1.07 -1.8,2.12 -3.34,3.17 -1.54,1.04 -3.17,1.75 -4.91,2.15 -2.2,0.5 -4.22,0.48 -6.07,-0.08 -1.84,-0.55 -3.37,-1.6 -4.59,-3.13 -1.21,-1.53 -2.05,-3.32 -2.51,-5.34 -0.5,-2.19 -0.49,-4.25 0.04,-6.17 0.53,-1.91 1.58,-3.53 3.14,-4.85 1.19,-1.01 2.79,-1.74 4.8,-2.2 2.61,-0.59 4.78,-0.51 6.49,0.26 1.72,0.76 3.01,2.06 3.88,3.91l-4.06 1.76c-0.53,-0.97 -1.27,-1.66 -2.23,-2.08 -0.95,-0.41 -2.03,-0.48 -3.26,-0.2 -1.85,0.42 -3.19,1.35 -4.02,2.78 -0.82,1.43 -0.97,3.3 -0.44,5.62 0.57,2.5 1.55,4.25 2.94,5.25 1.4,1 2.99,1.29 4.79,0.89 0.89,-0.21 1.74,-0.59 2.55,-1.14 0.82,-0.55 1.49,-1.15 2.02,-1.8l-0.61 -2.67 -4.85 1.11zm15.99 -0.21l4.21 0.73c-0.13,1.44 0.09,2.57 0.66,3.43 0.57,0.85 1.5,1.45 2.77,1.8 1.35,0.37 2.44,0.37 3.28,-0.02 0.85,-0.38 1.37,-0.95 1.59,-1.72 0.13,-0.49 0.1,-0.95 -0.09,-1.38 -0.19,-0.42 -0.61,-0.86 -1.26,-1.31 -0.44,-0.31 -1.47,-0.92 -3.09,-1.83 -2.09,-1.19 -3.47,-2.31 -4.16,-3.38 -0.95,-1.5 -1.2,-3.07 -0.74,-4.72 0.29,-1.07 0.87,-1.98 1.72,-2.74 0.85,-0.76 1.91,-1.22 3.17,-1.4 1.26,-0.17 2.69,-0.04 4.29,0.4 2.6,0.72 4.4,1.84 5.39,3.36 1,1.52 1.26,3.25 0.8,5.2l-4.26 -1.01c0.12,-1.13 -0.05,-2 -0.51,-2.64 -0.45,-0.63 -1.27,-1.11 -2.44,-1.43 -1.21,-0.34 -2.23,-0.35 -3.05,-0.03 -0.53,0.2 -0.87,0.57 -1.02,1.11 -0.14,0.5 -0.05,0.97 0.27,1.44 0.4,0.6 1.56,1.42 3.47,2.46 1.9,1.05 3.27,1.97 4.1,2.75 0.84,0.79 1.41,1.7 1.71,2.75 0.31,1.05 0.28,2.23 -0.08,3.54 -0.33,1.19 -0.97,2.22 -1.92,3.08 -0.95,0.86 -2.1,1.37 -3.45,1.54 -1.35,0.18 -2.94,0.01 -4.74,-0.49 -2.63,-0.72 -4.49,-1.89 -5.56,-3.49 -1.08,-1.6 -1.43,-3.6 -1.06,-6zm34.4 -2.58l3.08 3.1 -8.31 8.24c-1.32,1.31 -2.13,2.19 -2.45,2.65 -0.5,0.76 -0.7,1.57 -0.59,2.44 0.11,0.87 0.59,1.73 1.44,2.59 0.86,0.87 1.69,1.35 2.49,1.44 0.8,0.08 1.5,-0.09 2.11,-0.52 0.62,-0.43 1.53,-1.25 2.74,-2.45l8.49 -8.41 3.08 3.11 -8.06 7.99c-1.85,1.82 -3.23,3.03 -4.16,3.62 -0.92,0.58 -1.87,0.91 -2.84,0.98 -0.97,0.08 -1.98,-0.11 -3.03,-0.56 -1.06,-0.44 -2.18,-1.26 -3.38,-2.47 -1.45,-1.46 -2.38,-2.74 -2.79,-3.83 -0.4,-1.09 -0.55,-2.12 -0.45,-3.09 0.11,-0.98 0.39,-1.82 0.85,-2.55 0.68,-1.08 1.88,-2.46 3.59,-4.17l8.19 -8.11zm-0.56 31.34l19.24 -9.4 1.92 3.93 -15.96 7.8 4.75 9.73 -3.28 1.6 -6.67 -13.66z"/>
  <circle class="fil2" cx="100.19" cy="95.81" r="36.19"/>
 </g>
</svg>
